<?xml version="1.0" encoding="utf-8" standalone="no"?>
<!DOCTYPE svg PUBLIC "-//W3C//DTD SVG 1.1//EN"
  "http://www.w3.org/Graphics/SVG/1.1/DTD/svg11.dtd">
<svg xmlns:xlink="http://www.w3.org/1999/xlink" width="234.451743pt" height="234.056719pt" viewBox="0 0 234.451743 234.056719" xmlns="http://www.w3.org/2000/svg" version="1.1">
 <metadata>
  <rdf:RDF xmlns:dc="http://purl.org/dc/elements/1.1/" xmlns:cc="http://creativecommons.org/ns#" xmlns:rdf="http://www.w3.org/1999/02/22-rdf-syntax-ns#">
   <cc:Work>
    <dc:type rdf:resource="http://purl.org/dc/dcmitype/StillImage"/>
    <dc:date>2026-02-12T14:55:30.217803</dc:date>
    <dc:format>image/svg+xml</dc:format>
    <dc:creator>
     <cc:Agent>
      <dc:title>Matplotlib v3.7.0, https://matplotlib.org/</dc:title>
     </cc:Agent>
    </dc:creator>
   </cc:Work>
  </rdf:RDF>
 </metadata>
 <defs>
  <style type="text/css">*{stroke-linejoin: round; stroke-linecap: butt}</style>
 </defs>
 <g id="figure_1">
  <g id="patch_1">
   <path d="M 0 234.056719 
L 234.451743 234.056719 
L 234.451743 0 
L 0 0 
z
" style="fill: #ffffff"/>
  </g>
  <g id="axes_1">
   <g id="patch_2">
    <path d="M 42.005938 203.8 
L 230.851743 203.8 
L 230.851743 3.6 
L 42.005938 3.6 
z
" style="fill: #ffffff"/>
   </g>
   <g id="PolyCollection_1">
    <defs>
     <path id="m77b4d96719" d="M 54.395611 -220.227599 
L 54.395611 -218.234161 
L 92.88145 -209.498579 
L 115.394223 -200.77808 
L 131.36729 -191.637932 
L 143.756963 -182.502346 
L 153.880063 -173.429311 
L 169.85313 -147.808955 
L 182.242803 -122.174827 
L 204.755576 -63.396345 
L 220.728643 -111.311455 
L 220.728643 -113.304893 
L 220.728643 -113.304893 
L 204.755576 -65.389783 
L 182.242803 -124.168265 
L 169.85313 -149.802393 
L 153.880063 -175.42275 
L 143.756963 -184.495784 
L 131.36729 -193.63137 
L 115.394223 -202.771518 
L 92.88145 -211.492017 
L 54.395611 -220.227599 
z
" style="stroke: #d55e00; stroke-opacity: 0.1"/>
    </defs>
    <g clip-path="url(#p6310ec1716)">
     <use xlink:href="#m77b4d96719" x="0" y="234.056719" style="fill: #d55e00; fill-opacity: 0.1; stroke: #d55e00; stroke-opacity: 0.1"/>
    </g>
   </g>
   <g id="PolyCollection_2">
    <defs>
     <path id="me7f32d9513" d="M 54.395611 -225.294849 
L 54.395611 -224.648647 
L 92.88145 -222.186843 
L 115.394223 -219.839329 
L 131.36729 -217.870422 
L 143.756963 -216.760811 
L 153.880063 -215.901644 
L 169.85313 -214.737831 
L 182.242803 -214.097565 
L 204.755576 -213.632086 
L 220.728643 -213.588716 
L 220.728643 -214.234918 
L 220.728643 -214.234918 
L 204.755576 -214.278289 
L 182.242803 -214.743768 
L 169.85313 -215.384033 
L 153.880063 -216.547846 
L 143.756963 -217.407014 
L 131.36729 -218.516624 
L 115.394223 -220.485532 
L 92.88145 -222.833046 
L 54.395611 -225.294849 
z
" style="stroke: #0072b2; stroke-opacity: 0.1"/>
    </defs>
    <g clip-path="url(#p6310ec1716)">
     <use xlink:href="#me7f32d9513" x="0" y="234.056719" style="fill: #0072b2; fill-opacity: 0.1; stroke: #0072b2; stroke-opacity: 0.1"/>
    </g>
   </g>
   <g id="matplotlib.axis_1">
    <g id="xtick_1">
     <g id="line2d_1">
      <path d="M 54.395611 203.8 
L 54.395611 3.6 
" clip-path="url(#p6310ec1716)" style="fill: none; stroke: #b0b0b0; stroke-opacity: 0.15; stroke-width: 0.3; stroke-linecap: square"/>
     </g>
     <g id="line2d_2">
      <defs>
       <path id="m17f55db778" d="M 0 0 
L 0 3.5 
" style="stroke: #000000; stroke-width: 0.5"/>
      </defs>
      <g>
       <use xlink:href="#m17f55db778" x="54.395611" y="203.8" style="stroke: #000000; stroke-width: 0.5"/>
      </g>
     </g>
     <g id="text_1">
      <!-- 5 -->
      <g transform="translate(52.171236 216.52625) scale(0.08 -0.08)">
       <defs>
        <path id="ArialMT-35" d="M 266 1200 
L 856 1250 
Q 922 819 1161 601 
Q 1400 384 1738 384 
Q 2144 384 2425 690 
Q 2706 997 2706 1503 
Q 2706 1984 2436 2262 
Q 2166 2541 1728 2541 
Q 1456 2541 1237 2417 
Q 1019 2294 894 2097 
L 366 2166 
L 809 4519 
L 3088 4519 
L 3088 3981 
L 1259 3981 
L 1013 2750 
Q 1425 3038 1878 3038 
Q 2478 3038 2890 2622 
Q 3303 2206 3303 1553 
Q 3303 931 2941 478 
Q 2500 -78 1738 -78 
Q 1113 -78 717 272 
Q 322 622 266 1200 
z
" transform="scale(0.015625)"/>
       </defs>
       <use xlink:href="#ArialMT-35"/>
      </g>
     </g>
    </g>
    <g id="xtick_2">
     <g id="line2d_3">
      <path d="M 92.88145 203.8 
L 92.88145 3.6 
" clip-path="url(#p6310ec1716)" style="fill: none; stroke: #b0b0b0; stroke-opacity: 0.15; stroke-width: 0.3; stroke-linecap: square"/>
     </g>
     <g id="line2d_4">
      <g>
       <use xlink:href="#m17f55db778" x="92.88145" y="203.8" style="stroke: #000000; stroke-width: 0.5"/>
      </g>
     </g>
     <g id="text_2">
      <!-- 10 -->
      <g transform="translate(88.4327 216.52625) scale(0.08 -0.08)">
       <defs>
        <path id="ArialMT-31" d="M 2384 0 
L 1822 0 
L 1822 3584 
Q 1619 3391 1289 3197 
Q 959 3003 697 2906 
L 697 3450 
Q 1169 3672 1522 3987 
Q 1875 4303 2022 4600 
L 2384 4600 
L 2384 0 
z
" transform="scale(0.015625)"/>
        <path id="ArialMT-30" d="M 266 2259 
Q 266 3072 433 3567 
Q 600 4063 929 4331 
Q 1259 4600 1759 4600 
Q 2128 4600 2406 4451 
Q 2684 4303 2865 4023 
Q 3047 3744 3150 3342 
Q 3253 2941 3253 2259 
Q 3253 1453 3087 958 
Q 2922 463 2592 192 
Q 2263 -78 1759 -78 
Q 1097 -78 719 397 
Q 266 969 266 2259 
z
M 844 2259 
Q 844 1131 1108 757 
Q 1372 384 1759 384 
Q 2147 384 2411 759 
Q 2675 1134 2675 2259 
Q 2675 3391 2411 3762 
Q 2147 4134 1753 4134 
Q 1366 4134 1134 3806 
Q 844 3388 844 2259 
z
" transform="scale(0.015625)"/>
       </defs>
       <use xlink:href="#ArialMT-31"/>
       <use xlink:href="#ArialMT-30" x="55.615234"/>
      </g>
     </g>
    </g>
    <g id="xtick_3">
     <g id="line2d_5">
      <path d="M 131.36729 203.8 
L 131.36729 3.6 
" clip-path="url(#p6310ec1716)" style="fill: none; stroke: #b0b0b0; stroke-opacity: 0.15; stroke-width: 0.3; stroke-linecap: square"/>
     </g>
     <g id="line2d_6">
      <g>
       <use xlink:href="#m17f55db778" x="131.36729" y="203.8" style="stroke: #000000; stroke-width: 0.5"/>
      </g>
     </g>
     <g id="text_3">
      <!-- 20 -->
      <g transform="translate(126.91854 216.52625) scale(0.08 -0.08)">
       <defs>
        <path id="ArialMT-32" d="M 3222 541 
L 3222 0 
L 194 0 
Q 188 203 259 391 
Q 375 700 629 1000 
Q 884 1300 1366 1694 
Q 2113 2306 2375 2664 
Q 2638 3022 2638 3341 
Q 2638 3675 2398 3904 
Q 2159 4134 1775 4134 
Q 1369 4134 1125 3890 
Q 881 3647 878 3216 
L 300 3275 
Q 359 3922 746 4261 
Q 1134 4600 1788 4600 
Q 2447 4600 2831 4234 
Q 3216 3869 3216 3328 
Q 3216 3053 3103 2787 
Q 2991 2522 2730 2228 
Q 2469 1934 1863 1422 
Q 1356 997 1212 845 
Q 1069 694 975 541 
L 3222 541 
z
" transform="scale(0.015625)"/>
       </defs>
       <use xlink:href="#ArialMT-32"/>
       <use xlink:href="#ArialMT-30" x="55.615234"/>
      </g>
     </g>
    </g>
    <g id="xtick_4">
     <g id="line2d_7">
      <path d="M 182.242803 203.8 
L 182.242803 3.6 
" clip-path="url(#p6310ec1716)" style="fill: none; stroke: #b0b0b0; stroke-opacity: 0.15; stroke-width: 0.3; stroke-linecap: square"/>
     </g>
     <g id="line2d_8">
      <g>
       <use xlink:href="#m17f55db778" x="182.242803" y="203.8" style="stroke: #000000; stroke-width: 0.5"/>
      </g>
     </g>
     <g id="text_4">
      <!-- 50 -->
      <g transform="translate(177.794053 216.52625) scale(0.08 -0.08)">
       <use xlink:href="#ArialMT-35"/>
       <use xlink:href="#ArialMT-30" x="55.615234"/>
      </g>
     </g>
    </g>
    <g id="xtick_5">
     <g id="line2d_9">
      <path d="M 220.728643 203.8 
L 220.728643 3.6 
" clip-path="url(#p6310ec1716)" style="fill: none; stroke: #b0b0b0; stroke-opacity: 0.15; stroke-width: 0.3; stroke-linecap: square"/>
     </g>
     <g id="line2d_10">
      <g>
       <use xlink:href="#m17f55db778" x="220.728643" y="203.8" style="stroke: #000000; stroke-width: 0.5"/>
      </g>
     </g>
     <g id="text_5">
      <!-- 100 -->
      <g transform="translate(214.055518 216.52625) scale(0.08 -0.08)">
       <use xlink:href="#ArialMT-31"/>
       <use xlink:href="#ArialMT-30" x="55.615234"/>
       <use xlink:href="#ArialMT-30" x="111.230469"/>
      </g>
     </g>
    </g>
    <g id="xtick_6">
     <g id="line2d_11">
      <defs>
       <path id="m0d83a6a657" d="M 0 0 
L 0 2 
" style="stroke: #000000; stroke-width: 0.6"/>
      </defs>
      <g>
       <use xlink:href="#m0d83a6a657" x="42.005938" y="203.8" style="stroke: #000000; stroke-width: 0.6"/>
      </g>
     </g>
    </g>
    <g id="xtick_7">
     <g id="line2d_12">
      <g>
       <use xlink:href="#m0d83a6a657" x="64.518711" y="203.8" style="stroke: #000000; stroke-width: 0.6"/>
      </g>
     </g>
    </g>
    <g id="xtick_8">
     <g id="line2d_13">
      <g>
       <use xlink:href="#m0d83a6a657" x="73.07767" y="203.8" style="stroke: #000000; stroke-width: 0.6"/>
      </g>
     </g>
    </g>
    <g id="xtick_9">
     <g id="line2d_14">
      <g>
       <use xlink:href="#m0d83a6a657" x="80.491777" y="203.8" style="stroke: #000000; stroke-width: 0.6"/>
      </g>
     </g>
    </g>
    <g id="xtick_10">
     <g id="line2d_15">
      <g>
       <use xlink:href="#m0d83a6a657" x="87.031484" y="203.8" style="stroke: #000000; stroke-width: 0.6"/>
      </g>
     </g>
    </g>
    <g id="xtick_11">
     <g id="line2d_16">
      <g>
       <use xlink:href="#m0d83a6a657" x="153.880063" y="203.8" style="stroke: #000000; stroke-width: 0.6"/>
      </g>
     </g>
    </g>
    <g id="xtick_12">
     <g id="line2d_17">
      <g>
       <use xlink:href="#m0d83a6a657" x="169.85313" y="203.8" style="stroke: #000000; stroke-width: 0.6"/>
      </g>
     </g>
    </g>
    <g id="xtick_13">
     <g id="line2d_18">
      <g>
       <use xlink:href="#m0d83a6a657" x="192.365903" y="203.8" style="stroke: #000000; stroke-width: 0.6"/>
      </g>
     </g>
    </g>
    <g id="xtick_14">
     <g id="line2d_19">
      <g>
       <use xlink:href="#m0d83a6a657" x="200.924862" y="203.8" style="stroke: #000000; stroke-width: 0.6"/>
      </g>
     </g>
    </g>
    <g id="xtick_15">
     <g id="line2d_20">
      <g>
       <use xlink:href="#m0d83a6a657" x="208.33897" y="203.8" style="stroke: #000000; stroke-width: 0.6"/>
      </g>
     </g>
    </g>
    <g id="xtick_16">
     <g id="line2d_21">
      <g>
       <use xlink:href="#m0d83a6a657" x="214.878676" y="203.8" style="stroke: #000000; stroke-width: 0.6"/>
      </g>
     </g>
    </g>
    <g id="text_6">
     <!-- Number of qubits -->
     <g transform="translate(102.164856 228.667969) scale(0.09 -0.09)">
      <defs>
       <path id="ArialMT-4e" d="M 488 0 
L 488 4581 
L 1109 4581 
L 3516 984 
L 3516 4581 
L 4097 4581 
L 4097 0 
L 3475 0 
L 1069 3600 
L 1069 0 
L 488 0 
z
" transform="scale(0.015625)"/>
       <path id="ArialMT-75" d="M 2597 0 
L 2597 488 
Q 2209 -75 1544 -75 
Q 1250 -75 995 37 
Q 741 150 617 320 
Q 494 491 444 738 
Q 409 903 409 1263 
L 409 3319 
L 972 3319 
L 972 1478 
Q 972 1038 1006 884 
Q 1059 663 1231 536 
Q 1403 409 1656 409 
Q 1909 409 2131 539 
Q 2353 669 2445 892 
Q 2538 1116 2538 1541 
L 2538 3319 
L 3100 3319 
L 3100 0 
L 2597 0 
z
" transform="scale(0.015625)"/>
       <path id="ArialMT-6d" d="M 422 0 
L 422 3319 
L 925 3319 
L 925 2853 
Q 1081 3097 1340 3245 
Q 1600 3394 1931 3394 
Q 2300 3394 2536 3241 
Q 2772 3088 2869 2813 
Q 3263 3394 3894 3394 
Q 4388 3394 4653 3120 
Q 4919 2847 4919 2278 
L 4919 0 
L 4359 0 
L 4359 2091 
Q 4359 2428 4304 2576 
Q 4250 2725 4106 2815 
Q 3963 2906 3769 2906 
Q 3419 2906 3187 2673 
Q 2956 2441 2956 1928 
L 2956 0 
L 2394 0 
L 2394 2156 
Q 2394 2531 2256 2718 
Q 2119 2906 1806 2906 
Q 1569 2906 1367 2781 
Q 1166 2656 1075 2415 
Q 984 2175 984 1722 
L 984 0 
L 422 0 
z
" transform="scale(0.015625)"/>
       <path id="ArialMT-62" d="M 941 0 
L 419 0 
L 419 4581 
L 981 4581 
L 981 2947 
Q 1338 3394 1891 3394 
Q 2197 3394 2470 3270 
Q 2744 3147 2920 2923 
Q 3097 2700 3197 2384 
Q 3297 2069 3297 1709 
Q 3297 856 2875 390 
Q 2453 -75 1863 -75 
Q 1275 -75 941 416 
L 941 0 
z
M 934 1684 
Q 934 1088 1097 822 
Q 1363 388 1816 388 
Q 2184 388 2453 708 
Q 2722 1028 2722 1663 
Q 2722 2313 2464 2622 
Q 2206 2931 1841 2931 
Q 1472 2931 1203 2611 
Q 934 2291 934 1684 
z
" transform="scale(0.015625)"/>
       <path id="ArialMT-65" d="M 2694 1069 
L 3275 997 
Q 3138 488 2766 206 
Q 2394 -75 1816 -75 
Q 1088 -75 661 373 
Q 234 822 234 1631 
Q 234 2469 665 2931 
Q 1097 3394 1784 3394 
Q 2450 3394 2872 2941 
Q 3294 2488 3294 1666 
Q 3294 1616 3291 1516 
L 816 1516 
Q 847 969 1125 678 
Q 1403 388 1819 388 
Q 2128 388 2347 550 
Q 2566 713 2694 1069 
z
M 847 1978 
L 2700 1978 
Q 2663 2397 2488 2606 
Q 2219 2931 1791 2931 
Q 1403 2931 1139 2672 
Q 875 2413 847 1978 
z
" transform="scale(0.015625)"/>
       <path id="ArialMT-72" d="M 416 0 
L 416 3319 
L 922 3319 
L 922 2816 
Q 1116 3169 1280 3281 
Q 1444 3394 1641 3394 
Q 1925 3394 2219 3213 
L 2025 2691 
Q 1819 2813 1613 2813 
Q 1428 2813 1281 2702 
Q 1134 2591 1072 2394 
Q 978 2094 978 1738 
L 978 0 
L 416 0 
z
" transform="scale(0.015625)"/>
       <path id="ArialMT-20" transform="scale(0.015625)"/>
       <path id="ArialMT-6f" d="M 213 1659 
Q 213 2581 725 3025 
Q 1153 3394 1769 3394 
Q 2453 3394 2887 2945 
Q 3322 2497 3322 1706 
Q 3322 1066 3130 698 
Q 2938 331 2570 128 
Q 2203 -75 1769 -75 
Q 1072 -75 642 372 
Q 213 819 213 1659 
z
M 791 1659 
Q 791 1022 1069 705 
Q 1347 388 1769 388 
Q 2188 388 2466 706 
Q 2744 1025 2744 1678 
Q 2744 2294 2464 2611 
Q 2184 2928 1769 2928 
Q 1347 2928 1069 2612 
Q 791 2297 791 1659 
z
" transform="scale(0.015625)"/>
       <path id="ArialMT-66" d="M 556 0 
L 556 2881 
L 59 2881 
L 59 3319 
L 556 3319 
L 556 3672 
Q 556 4006 616 4169 
Q 697 4388 901 4523 
Q 1106 4659 1475 4659 
Q 1713 4659 2000 4603 
L 1916 4113 
Q 1741 4144 1584 4144 
Q 1328 4144 1222 4034 
Q 1116 3925 1116 3625 
L 1116 3319 
L 1763 3319 
L 1763 2881 
L 1116 2881 
L 1116 0 
L 556 0 
z
" transform="scale(0.015625)"/>
       <path id="ArialMT-71" d="M 2538 -1272 
L 2538 353 
Q 2406 169 2170 47 
Q 1934 -75 1669 -75 
Q 1078 -75 651 397 
Q 225 869 225 1691 
Q 225 2191 398 2587 
Q 572 2984 901 3189 
Q 1231 3394 1625 3394 
Q 2241 3394 2594 2875 
L 2594 3319 
L 3100 3319 
L 3100 -1272 
L 2538 -1272 
z
M 803 1669 
Q 803 1028 1072 708 
Q 1341 388 1716 388 
Q 2075 388 2334 692 
Q 2594 997 2594 1619 
Q 2594 2281 2320 2615 
Q 2047 2950 1678 2950 
Q 1313 2950 1058 2639 
Q 803 2328 803 1669 
z
" transform="scale(0.015625)"/>
       <path id="ArialMT-69" d="M 425 3934 
L 425 4581 
L 988 4581 
L 988 3934 
L 425 3934 
z
M 425 0 
L 425 3319 
L 988 3319 
L 988 0 
L 425 0 
z
" transform="scale(0.015625)"/>
       <path id="ArialMT-74" d="M 1650 503 
L 1731 6 
Q 1494 -44 1306 -44 
Q 1000 -44 831 53 
Q 663 150 594 308 
Q 525 466 525 972 
L 525 2881 
L 113 2881 
L 113 3319 
L 525 3319 
L 525 4141 
L 1084 4478 
L 1084 3319 
L 1650 3319 
L 1650 2881 
L 1084 2881 
L 1084 941 
Q 1084 700 1114 631 
Q 1144 563 1211 522 
Q 1278 481 1403 481 
Q 1497 481 1650 503 
z
" transform="scale(0.015625)"/>
       <path id="ArialMT-73" d="M 197 991 
L 753 1078 
Q 800 744 1014 566 
Q 1228 388 1613 388 
Q 2000 388 2187 545 
Q 2375 703 2375 916 
Q 2375 1106 2209 1216 
Q 2094 1291 1634 1406 
Q 1016 1563 777 1677 
Q 538 1791 414 1992 
Q 291 2194 291 2438 
Q 291 2659 392 2848 
Q 494 3038 669 3163 
Q 800 3259 1026 3326 
Q 1253 3394 1513 3394 
Q 1903 3394 2198 3281 
Q 2494 3169 2634 2976 
Q 2775 2784 2828 2463 
L 2278 2388 
Q 2241 2644 2061 2787 
Q 1881 2931 1553 2931 
Q 1166 2931 1000 2803 
Q 834 2675 834 2503 
Q 834 2394 903 2306 
Q 972 2216 1119 2156 
Q 1203 2125 1616 2013 
Q 2213 1853 2448 1751 
Q 2684 1650 2818 1456 
Q 2953 1263 2953 975 
Q 2953 694 2789 445 
Q 2625 197 2315 61 
Q 2006 -75 1616 -75 
Q 969 -75 630 194 
Q 291 463 197 991 
z
" transform="scale(0.015625)"/>
      </defs>
      <use xlink:href="#ArialMT-4e"/>
      <use xlink:href="#ArialMT-75" x="72.216797"/>
      <use xlink:href="#ArialMT-6d" x="127.832031"/>
      <use xlink:href="#ArialMT-62" x="211.132812"/>
      <use xlink:href="#ArialMT-65" x="266.748047"/>
      <use xlink:href="#ArialMT-72" x="322.363281"/>
      <use xlink:href="#ArialMT-20" x="355.664062"/>
      <use xlink:href="#ArialMT-6f" x="383.447266"/>
      <use xlink:href="#ArialMT-66" x="439.0625"/>
      <use xlink:href="#ArialMT-20" x="466.845703"/>
      <use xlink:href="#ArialMT-71" x="494.628906"/>
      <use xlink:href="#ArialMT-75" x="550.244141"/>
      <use xlink:href="#ArialMT-62" x="605.859375"/>
      <use xlink:href="#ArialMT-69" x="661.474609"/>
      <use xlink:href="#ArialMT-74" x="683.691406"/>
      <use xlink:href="#ArialMT-73" x="711.474609"/>
     </g>
    </g>
   </g>
   <g id="matplotlib.axis_2">
    <g id="ytick_1">
     <g id="line2d_22">
      <path d="M 42.005938 203.8 
L 230.851743 203.8 
" clip-path="url(#p6310ec1716)" style="fill: none; stroke: #b0b0b0; stroke-opacity: 0.15; stroke-width: 0.3; stroke-linecap: square"/>
     </g>
     <g id="line2d_23">
      <defs>
       <path id="mfa2a6a3d0b" d="M 0 0 
L -3.5 0 
" style="stroke: #000000; stroke-width: 0.5"/>
      </defs>
      <g>
       <use xlink:href="#mfa2a6a3d0b" x="42.005938" y="203.8" style="stroke: #000000; stroke-width: 0.5"/>
      </g>
     </g>
     <g id="text_7">
      <!-- $\mathdefault{10^{-30}}$ -->
      <g transform="translate(16.045938 207.925) scale(0.08 -0.08)">
       <defs>
        <path id="ArialMT-2212" d="M 3381 1997 
L 356 1997 
L 356 2522 
L 3381 2522 
L 3381 1997 
z
" transform="scale(0.015625)"/>
        <path id="ArialMT-33" d="M 269 1209 
L 831 1284 
Q 928 806 1161 595 
Q 1394 384 1728 384 
Q 2125 384 2398 659 
Q 2672 934 2672 1341 
Q 2672 1728 2419 1979 
Q 2166 2231 1775 2231 
Q 1616 2231 1378 2169 
L 1441 2663 
Q 1497 2656 1531 2656 
Q 1891 2656 2178 2843 
Q 2466 3031 2466 3422 
Q 2466 3731 2256 3934 
Q 2047 4138 1716 4138 
Q 1388 4138 1169 3931 
Q 950 3725 888 3313 
L 325 3413 
Q 428 3978 793 4289 
Q 1159 4600 1703 4600 
Q 2078 4600 2393 4439 
Q 2709 4278 2876 4000 
Q 3044 3722 3044 3409 
Q 3044 3113 2884 2869 
Q 2725 2625 2413 2481 
Q 2819 2388 3044 2092 
Q 3269 1797 3269 1353 
Q 3269 753 2831 336 
Q 2394 -81 1725 -81 
Q 1122 -81 723 278 
Q 325 638 269 1209 
z
" transform="scale(0.015625)"/>
       </defs>
       <use xlink:href="#ArialMT-31" transform="translate(0 0.99375)"/>
       <use xlink:href="#ArialMT-30" transform="translate(55.615234 0.99375)"/>
       <use xlink:href="#ArialMT-2212" transform="translate(112.972813 70.6875) scale(0.7)"/>
       <use xlink:href="#ArialMT-33" transform="translate(153.851719 70.6875) scale(0.7)"/>
       <use xlink:href="#ArialMT-30" transform="translate(192.782383 70.6875) scale(0.7)"/>
      </g>
     </g>
    </g>
    <g id="ytick_2">
     <g id="line2d_24">
      <path d="M 42.005938 174.140741 
L 230.851743 174.140741 
" clip-path="url(#p6310ec1716)" style="fill: none; stroke: #b0b0b0; stroke-opacity: 0.15; stroke-width: 0.3; stroke-linecap: square"/>
     </g>
     <g id="line2d_25">
      <g>
       <use xlink:href="#mfa2a6a3d0b" x="42.005938" y="174.140741" style="stroke: #000000; stroke-width: 0.5"/>
      </g>
     </g>
     <g id="text_8">
      <!-- $\mathdefault{10^{-26}}$ -->
      <g transform="translate(16.045938 178.265741) scale(0.08 -0.08)">
       <defs>
        <path id="ArialMT-36" d="M 3184 3459 
L 2625 3416 
Q 2550 3747 2413 3897 
Q 2184 4138 1850 4138 
Q 1581 4138 1378 3988 
Q 1113 3794 959 3422 
Q 806 3050 800 2363 
Q 1003 2672 1297 2822 
Q 1591 2972 1913 2972 
Q 2475 2972 2870 2558 
Q 3266 2144 3266 1488 
Q 3266 1056 3080 686 
Q 2894 316 2569 119 
Q 2244 -78 1831 -78 
Q 1128 -78 684 439 
Q 241 956 241 2144 
Q 241 3472 731 4075 
Q 1159 4600 1884 4600 
Q 2425 4600 2770 4297 
Q 3116 3994 3184 3459 
z
M 888 1484 
Q 888 1194 1011 928 
Q 1134 663 1356 523 
Q 1578 384 1822 384 
Q 2178 384 2434 671 
Q 2691 959 2691 1453 
Q 2691 1928 2437 2201 
Q 2184 2475 1800 2475 
Q 1419 2475 1153 2201 
Q 888 1928 888 1484 
z
" transform="scale(0.015625)"/>
       </defs>
       <use xlink:href="#ArialMT-31" transform="translate(0 0.99375)"/>
       <use xlink:href="#ArialMT-30" transform="translate(55.615234 0.99375)"/>
       <use xlink:href="#ArialMT-2212" transform="translate(112.972813 70.6875) scale(0.7)"/>
       <use xlink:href="#ArialMT-32" transform="translate(153.851719 70.6875) scale(0.7)"/>
       <use xlink:href="#ArialMT-36" transform="translate(192.782383 70.6875) scale(0.7)"/>
      </g>
     </g>
    </g>
    <g id="ytick_3">
     <g id="line2d_26">
      <path d="M 42.005938 144.481481 
L 230.851743 144.481481 
" clip-path="url(#p6310ec1716)" style="fill: none; stroke: #b0b0b0; stroke-opacity: 0.15; stroke-width: 0.3; stroke-linecap: square"/>
     </g>
     <g id="line2d_27">
      <g>
       <use xlink:href="#mfa2a6a3d0b" x="42.005938" y="144.481481" style="stroke: #000000; stroke-width: 0.5"/>
      </g>
     </g>
     <g id="text_9">
      <!-- $\mathdefault{10^{-22}}$ -->
      <g transform="translate(16.045938 148.606481) scale(0.08 -0.08)">
       <use xlink:href="#ArialMT-31" transform="translate(0 0.99375)"/>
       <use xlink:href="#ArialMT-30" transform="translate(55.615234 0.99375)"/>
       <use xlink:href="#ArialMT-2212" transform="translate(112.972813 70.6875) scale(0.7)"/>
       <use xlink:href="#ArialMT-32" transform="translate(153.851719 70.6875) scale(0.7)"/>
       <use xlink:href="#ArialMT-32" transform="translate(192.782383 70.6875) scale(0.7)"/>
      </g>
     </g>
    </g>
    <g id="ytick_4">
     <g id="line2d_28">
      <path d="M 42.005938 114.822222 
L 230.851743 114.822222 
" clip-path="url(#p6310ec1716)" style="fill: none; stroke: #b0b0b0; stroke-opacity: 0.15; stroke-width: 0.3; stroke-linecap: square"/>
     </g>
     <g id="line2d_29">
      <g>
       <use xlink:href="#mfa2a6a3d0b" x="42.005938" y="114.822222" style="stroke: #000000; stroke-width: 0.5"/>
      </g>
     </g>
     <g id="text_10">
      <!-- $\mathdefault{10^{-18}}$ -->
      <g transform="translate(16.045938 118.947222) scale(0.08 -0.08)">
       <defs>
        <path id="ArialMT-38" d="M 1131 2484 
Q 781 2613 612 2850 
Q 444 3088 444 3419 
Q 444 3919 803 4259 
Q 1163 4600 1759 4600 
Q 2359 4600 2725 4251 
Q 3091 3903 3091 3403 
Q 3091 3084 2923 2848 
Q 2756 2613 2416 2484 
Q 2838 2347 3058 2040 
Q 3278 1734 3278 1309 
Q 3278 722 2862 322 
Q 2447 -78 1769 -78 
Q 1091 -78 675 323 
Q 259 725 259 1325 
Q 259 1772 486 2073 
Q 713 2375 1131 2484 
z
M 1019 3438 
Q 1019 3113 1228 2906 
Q 1438 2700 1772 2700 
Q 2097 2700 2305 2904 
Q 2513 3109 2513 3406 
Q 2513 3716 2298 3927 
Q 2084 4138 1766 4138 
Q 1444 4138 1231 3931 
Q 1019 3725 1019 3438 
z
M 838 1322 
Q 838 1081 952 856 
Q 1066 631 1291 507 
Q 1516 384 1775 384 
Q 2178 384 2440 643 
Q 2703 903 2703 1303 
Q 2703 1709 2433 1975 
Q 2163 2241 1756 2241 
Q 1359 2241 1098 1978 
Q 838 1716 838 1322 
z
" transform="scale(0.015625)"/>
       </defs>
       <use xlink:href="#ArialMT-31" transform="translate(0 0.99375)"/>
       <use xlink:href="#ArialMT-30" transform="translate(55.615234 0.99375)"/>
       <use xlink:href="#ArialMT-2212" transform="translate(112.972813 70.6875) scale(0.7)"/>
       <use xlink:href="#ArialMT-31" transform="translate(153.851719 70.6875) scale(0.7)"/>
       <use xlink:href="#ArialMT-38" transform="translate(192.782383 70.6875) scale(0.7)"/>
      </g>
     </g>
    </g>
    <g id="ytick_5">
     <g id="line2d_30">
      <path d="M 42.005938 85.162963 
L 230.851743 85.162963 
" clip-path="url(#p6310ec1716)" style="fill: none; stroke: #b0b0b0; stroke-opacity: 0.15; stroke-width: 0.3; stroke-linecap: square"/>
     </g>
     <g id="line2d_31">
      <g>
       <use xlink:href="#mfa2a6a3d0b" x="42.005938" y="85.162963" style="stroke: #000000; stroke-width: 0.5"/>
      </g>
     </g>
     <g id="text_11">
      <!-- $\mathdefault{10^{-14}}$ -->
      <g transform="translate(16.045938 89.287963) scale(0.08 -0.08)">
       <defs>
        <path id="ArialMT-34" d="M 2069 0 
L 2069 1097 
L 81 1097 
L 81 1613 
L 2172 4581 
L 2631 4581 
L 2631 1613 
L 3250 1613 
L 3250 1097 
L 2631 1097 
L 2631 0 
L 2069 0 
z
M 2069 1613 
L 2069 3678 
L 634 1613 
L 2069 1613 
z
" transform="scale(0.015625)"/>
       </defs>
       <use xlink:href="#ArialMT-31" transform="translate(0 0.99375)"/>
       <use xlink:href="#ArialMT-30" transform="translate(55.615234 0.99375)"/>
       <use xlink:href="#ArialMT-2212" transform="translate(112.972813 70.6875) scale(0.7)"/>
       <use xlink:href="#ArialMT-31" transform="translate(153.851719 70.6875) scale(0.7)"/>
       <use xlink:href="#ArialMT-34" transform="translate(192.782383 70.6875) scale(0.7)"/>
      </g>
     </g>
    </g>
    <g id="ytick_6">
     <g id="line2d_32">
      <path d="M 42.005938 55.503704 
L 230.851743 55.503704 
" clip-path="url(#p6310ec1716)" style="fill: none; stroke: #b0b0b0; stroke-opacity: 0.15; stroke-width: 0.3; stroke-linecap: square"/>
     </g>
     <g id="line2d_33">
      <g>
       <use xlink:href="#mfa2a6a3d0b" x="42.005938" y="55.503704" style="stroke: #000000; stroke-width: 0.5"/>
      </g>
     </g>
     <g id="text_12">
      <!-- $\mathdefault{10^{-10}}$ -->
      <g transform="translate(16.045938 59.628704) scale(0.08 -0.08)">
       <use xlink:href="#ArialMT-31" transform="translate(0 0.99375)"/>
       <use xlink:href="#ArialMT-30" transform="translate(55.615234 0.99375)"/>
       <use xlink:href="#ArialMT-2212" transform="translate(112.972813 70.6875) scale(0.7)"/>
       <use xlink:href="#ArialMT-31" transform="translate(153.851719 70.6875) scale(0.7)"/>
       <use xlink:href="#ArialMT-30" transform="translate(192.782383 70.6875) scale(0.7)"/>
      </g>
     </g>
    </g>
    <g id="ytick_7">
     <g id="line2d_34">
      <path d="M 42.005938 25.844444 
L 230.851743 25.844444 
" clip-path="url(#p6310ec1716)" style="fill: none; stroke: #b0b0b0; stroke-opacity: 0.15; stroke-width: 0.3; stroke-linecap: square"/>
     </g>
     <g id="line2d_35">
      <g>
       <use xlink:href="#mfa2a6a3d0b" x="42.005938" y="25.844444" style="stroke: #000000; stroke-width: 0.5"/>
      </g>
     </g>
     <g id="text_13">
      <!-- $\mathdefault{10^{-6}}$ -->
      <g transform="translate(19.165938 29.969444) scale(0.08 -0.08)">
       <use xlink:href="#ArialMT-31" transform="translate(0 0.99375)"/>
       <use xlink:href="#ArialMT-30" transform="translate(55.615234 0.99375)"/>
       <use xlink:href="#ArialMT-2212" transform="translate(112.972813 70.6875) scale(0.7)"/>
       <use xlink:href="#ArialMT-36" transform="translate(153.851719 70.6875) scale(0.7)"/>
      </g>
     </g>
    </g>
    <g id="text_14">
     <!-- Gradient magnitude -->
     <g transform="translate(10.151719 143.22125) rotate(-90) scale(0.09 -0.09)">
      <defs>
       <path id="ArialMT-47" d="M 2638 1797 
L 2638 2334 
L 4578 2338 
L 4578 638 
Q 4131 281 3656 101 
Q 3181 -78 2681 -78 
Q 2006 -78 1454 211 
Q 903 500 622 1047 
Q 341 1594 341 2269 
Q 341 2938 620 3517 
Q 900 4097 1425 4378 
Q 1950 4659 2634 4659 
Q 3131 4659 3532 4498 
Q 3934 4338 4162 4050 
Q 4391 3763 4509 3300 
L 3963 3150 
Q 3859 3500 3706 3700 
Q 3553 3900 3268 4020 
Q 2984 4141 2638 4141 
Q 2222 4141 1919 4014 
Q 1616 3888 1430 3681 
Q 1244 3475 1141 3228 
Q 966 2803 966 2306 
Q 966 1694 1177 1281 
Q 1388 869 1791 669 
Q 2194 469 2647 469 
Q 3041 469 3416 620 
Q 3791 772 3984 944 
L 3984 1797 
L 2638 1797 
z
" transform="scale(0.015625)"/>
       <path id="ArialMT-61" d="M 2588 409 
Q 2275 144 1986 34 
Q 1697 -75 1366 -75 
Q 819 -75 525 192 
Q 231 459 231 875 
Q 231 1119 342 1320 
Q 453 1522 633 1644 
Q 813 1766 1038 1828 
Q 1203 1872 1538 1913 
Q 2219 1994 2541 2106 
Q 2544 2222 2544 2253 
Q 2544 2597 2384 2738 
Q 2169 2928 1744 2928 
Q 1347 2928 1158 2789 
Q 969 2650 878 2297 
L 328 2372 
Q 403 2725 575 2942 
Q 747 3159 1072 3276 
Q 1397 3394 1825 3394 
Q 2250 3394 2515 3294 
Q 2781 3194 2906 3042 
Q 3031 2891 3081 2659 
Q 3109 2516 3109 2141 
L 3109 1391 
Q 3109 606 3145 398 
Q 3181 191 3288 0 
L 2700 0 
Q 2613 175 2588 409 
z
M 2541 1666 
Q 2234 1541 1622 1453 
Q 1275 1403 1131 1340 
Q 988 1278 909 1158 
Q 831 1038 831 891 
Q 831 666 1001 516 
Q 1172 366 1500 366 
Q 1825 366 2078 508 
Q 2331 650 2450 897 
Q 2541 1088 2541 1459 
L 2541 1666 
z
" transform="scale(0.015625)"/>
       <path id="ArialMT-64" d="M 2575 0 
L 2575 419 
Q 2259 -75 1647 -75 
Q 1250 -75 917 144 
Q 584 363 401 755 
Q 219 1147 219 1656 
Q 219 2153 384 2558 
Q 550 2963 881 3178 
Q 1213 3394 1622 3394 
Q 1922 3394 2156 3267 
Q 2391 3141 2538 2938 
L 2538 4581 
L 3097 4581 
L 3097 0 
L 2575 0 
z
M 797 1656 
Q 797 1019 1065 703 
Q 1334 388 1700 388 
Q 2069 388 2326 689 
Q 2584 991 2584 1609 
Q 2584 2291 2321 2609 
Q 2059 2928 1675 2928 
Q 1300 2928 1048 2622 
Q 797 2316 797 1656 
z
" transform="scale(0.015625)"/>
       <path id="ArialMT-6e" d="M 422 0 
L 422 3319 
L 928 3319 
L 928 2847 
Q 1294 3394 1984 3394 
Q 2284 3394 2536 3286 
Q 2788 3178 2913 3003 
Q 3038 2828 3088 2588 
Q 3119 2431 3119 2041 
L 3119 0 
L 2556 0 
L 2556 2019 
Q 2556 2363 2490 2533 
Q 2425 2703 2258 2804 
Q 2091 2906 1866 2906 
Q 1506 2906 1245 2678 
Q 984 2450 984 1813 
L 984 0 
L 422 0 
z
" transform="scale(0.015625)"/>
       <path id="ArialMT-67" d="M 319 -275 
L 866 -356 
Q 900 -609 1056 -725 
Q 1266 -881 1628 -881 
Q 2019 -881 2231 -725 
Q 2444 -569 2519 -288 
Q 2563 -116 2559 434 
Q 2191 0 1641 0 
Q 956 0 581 494 
Q 206 988 206 1678 
Q 206 2153 378 2554 
Q 550 2956 876 3175 
Q 1203 3394 1644 3394 
Q 2231 3394 2613 2919 
L 2613 3319 
L 3131 3319 
L 3131 450 
Q 3131 -325 2973 -648 
Q 2816 -972 2473 -1159 
Q 2131 -1347 1631 -1347 
Q 1038 -1347 672 -1080 
Q 306 -813 319 -275 
z
M 784 1719 
Q 784 1066 1043 766 
Q 1303 466 1694 466 
Q 2081 466 2343 764 
Q 2606 1063 2606 1700 
Q 2606 2309 2336 2618 
Q 2066 2928 1684 2928 
Q 1309 2928 1046 2623 
Q 784 2319 784 1719 
z
" transform="scale(0.015625)"/>
      </defs>
      <use xlink:href="#ArialMT-47"/>
      <use xlink:href="#ArialMT-72" x="77.783203"/>
      <use xlink:href="#ArialMT-61" x="111.083984"/>
      <use xlink:href="#ArialMT-64" x="166.699219"/>
      <use xlink:href="#ArialMT-69" x="222.314453"/>
      <use xlink:href="#ArialMT-65" x="244.53125"/>
      <use xlink:href="#ArialMT-6e" x="300.146484"/>
      <use xlink:href="#ArialMT-74" x="355.761719"/>
      <use xlink:href="#ArialMT-20" x="383.544922"/>
      <use xlink:href="#ArialMT-6d" x="411.328125"/>
      <use xlink:href="#ArialMT-61" x="494.628906"/>
      <use xlink:href="#ArialMT-67" x="550.244141"/>
      <use xlink:href="#ArialMT-6e" x="605.859375"/>
      <use xlink:href="#ArialMT-69" x="661.474609"/>
      <use xlink:href="#ArialMT-74" x="683.691406"/>
      <use xlink:href="#ArialMT-75" x="711.474609"/>
      <use xlink:href="#ArialMT-64" x="767.089844"/>
      <use xlink:href="#ArialMT-65" x="822.705078"/>
     </g>
    </g>
   </g>
   <g id="LineCollection_1">
    <path d="M 54.395611 15.822558 
L 54.395611 13.82912 
" clip-path="url(#p6310ec1716)" style="fill: none; stroke: #d55e00; stroke-width: 0.5"/>
    <path d="M 92.88145 24.55814 
L 92.88145 22.564702 
" clip-path="url(#p6310ec1716)" style="fill: none; stroke: #d55e00; stroke-width: 0.5"/>
    <path d="M 115.394223 33.278639 
L 115.394223 31.285201 
" clip-path="url(#p6310ec1716)" style="fill: none; stroke: #d55e00; stroke-width: 0.5"/>
    <path d="M 131.36729 42.418787 
L 131.36729 40.425349 
" clip-path="url(#p6310ec1716)" style="fill: none; stroke: #d55e00; stroke-width: 0.5"/>
    <path d="M 143.756963 51.554373 
L 143.756963 49.560935 
" clip-path="url(#p6310ec1716)" style="fill: none; stroke: #d55e00; stroke-width: 0.5"/>
    <path d="M 153.880063 60.627407 
L 153.880063 58.633969 
" clip-path="url(#p6310ec1716)" style="fill: none; stroke: #d55e00; stroke-width: 0.5"/>
    <path d="M 169.85313 86.247764 
L 169.85313 84.254325 
" clip-path="url(#p6310ec1716)" style="fill: none; stroke: #d55e00; stroke-width: 0.5"/>
    <path d="M 182.242803 111.881892 
L 182.242803 109.888454 
" clip-path="url(#p6310ec1716)" style="fill: none; stroke: #d55e00; stroke-width: 0.5"/>
    <path d="M 204.755576 170.660374 
L 204.755576 168.666936 
" clip-path="url(#p6310ec1716)" style="fill: none; stroke: #d55e00; stroke-width: 0.5"/>
    <path d="M 220.728643 122.745264 
L 220.728643 120.751826 
" clip-path="url(#p6310ec1716)" style="fill: none; stroke: #d55e00; stroke-width: 0.5"/>
   </g>
   <g id="line2d_36">
    <defs>
     <path id="m4401568455" d="M 1.5 0 
L -1.5 -0 
" style="stroke: #d55e00; stroke-width: 0.5"/>
    </defs>
    <g clip-path="url(#p6310ec1716)">
     <use xlink:href="#m4401568455" x="54.395611" y="15.822558" style="fill: #d55e00; stroke: #d55e00; stroke-width: 0.5"/>
     <use xlink:href="#m4401568455" x="92.88145" y="24.55814" style="fill: #d55e00; stroke: #d55e00; stroke-width: 0.5"/>
     <use xlink:href="#m4401568455" x="115.394223" y="33.278639" style="fill: #d55e00; stroke: #d55e00; stroke-width: 0.5"/>
     <use xlink:href="#m4401568455" x="131.36729" y="42.418787" style="fill: #d55e00; stroke: #d55e00; stroke-width: 0.5"/>
     <use xlink:href="#m4401568455" x="143.756963" y="51.554373" style="fill: #d55e00; stroke: #d55e00; stroke-width: 0.5"/>
     <use xlink:href="#m4401568455" x="153.880063" y="60.627407" style="fill: #d55e00; stroke: #d55e00; stroke-width: 0.5"/>
     <use xlink:href="#m4401568455" x="169.85313" y="86.247764" style="fill: #d55e00; stroke: #d55e00; stroke-width: 0.5"/>
     <use xlink:href="#m4401568455" x="182.242803" y="111.881892" style="fill: #d55e00; stroke: #d55e00; stroke-width: 0.5"/>
     <use xlink:href="#m4401568455" x="204.755576" y="170.660374" style="fill: #d55e00; stroke: #d55e00; stroke-width: 0.5"/>
     <use xlink:href="#m4401568455" x="220.728643" y="122.745264" style="fill: #d55e00; stroke: #d55e00; stroke-width: 0.5"/>
    </g>
   </g>
   <g id="line2d_37">
    <g clip-path="url(#p6310ec1716)">
     <use xlink:href="#m4401568455" x="54.395611" y="13.82912" style="fill: #d55e00; stroke: #d55e00; stroke-width: 0.5"/>
     <use xlink:href="#m4401568455" x="92.88145" y="22.564702" style="fill: #d55e00; stroke: #d55e00; stroke-width: 0.5"/>
     <use xlink:href="#m4401568455" x="115.394223" y="31.285201" style="fill: #d55e00; stroke: #d55e00; stroke-width: 0.5"/>
     <use xlink:href="#m4401568455" x="131.36729" y="40.425349" style="fill: #d55e00; stroke: #d55e00; stroke-width: 0.5"/>
     <use xlink:href="#m4401568455" x="143.756963" y="49.560935" style="fill: #d55e00; stroke: #d55e00; stroke-width: 0.5"/>
     <use xlink:href="#m4401568455" x="153.880063" y="58.633969" style="fill: #d55e00; stroke: #d55e00; stroke-width: 0.5"/>
     <use xlink:href="#m4401568455" x="169.85313" y="84.254325" style="fill: #d55e00; stroke: #d55e00; stroke-width: 0.5"/>
     <use xlink:href="#m4401568455" x="182.242803" y="109.888454" style="fill: #d55e00; stroke: #d55e00; stroke-width: 0.5"/>
     <use xlink:href="#m4401568455" x="204.755576" y="168.666936" style="fill: #d55e00; stroke: #d55e00; stroke-width: 0.5"/>
     <use xlink:href="#m4401568455" x="220.728643" y="120.751826" style="fill: #d55e00; stroke: #d55e00; stroke-width: 0.5"/>
    </g>
   </g>
   <g id="LineCollection_2">
    <path d="M 54.395611 9.408072 
L 54.395611 8.761869 
" clip-path="url(#p6310ec1716)" style="fill: none; stroke: #0072b2; stroke-width: 0.5"/>
    <path d="M 92.88145 11.869876 
L 92.88145 11.223673 
" clip-path="url(#p6310ec1716)" style="fill: none; stroke: #0072b2; stroke-width: 0.5"/>
    <path d="M 115.394223 14.21739 
L 115.394223 13.571187 
" clip-path="url(#p6310ec1716)" style="fill: none; stroke: #0072b2; stroke-width: 0.5"/>
    <path d="M 131.36729 16.186297 
L 131.36729 15.540094 
" clip-path="url(#p6310ec1716)" style="fill: none; stroke: #0072b2; stroke-width: 0.5"/>
    <path d="M 143.756963 17.295907 
L 143.756963 16.649705 
" clip-path="url(#p6310ec1716)" style="fill: none; stroke: #0072b2; stroke-width: 0.5"/>
    <path d="M 153.880063 18.155075 
L 153.880063 17.508872 
" clip-path="url(#p6310ec1716)" style="fill: none; stroke: #0072b2; stroke-width: 0.5"/>
    <path d="M 169.85313 19.318888 
L 169.85313 18.672685 
" clip-path="url(#p6310ec1716)" style="fill: none; stroke: #0072b2; stroke-width: 0.5"/>
    <path d="M 182.242803 19.959154 
L 182.242803 19.312951 
" clip-path="url(#p6310ec1716)" style="fill: none; stroke: #0072b2; stroke-width: 0.5"/>
    <path d="M 204.755576 20.424632 
L 204.755576 19.77843 
" clip-path="url(#p6310ec1716)" style="fill: none; stroke: #0072b2; stroke-width: 0.5"/>
    <path d="M 220.728643 20.468003 
L 220.728643 19.8218 
" clip-path="url(#p6310ec1716)" style="fill: none; stroke: #0072b2; stroke-width: 0.5"/>
   </g>
   <g id="line2d_38">
    <defs>
     <path id="mf6b21af6fd" d="M 1.5 0 
L -1.5 -0 
" style="stroke: #0072b2; stroke-width: 0.5"/>
    </defs>
    <g clip-path="url(#p6310ec1716)">
     <use xlink:href="#mf6b21af6fd" x="54.395611" y="9.408072" style="fill: #0072b2; stroke: #0072b2; stroke-width: 0.5"/>
     <use xlink:href="#mf6b21af6fd" x="92.88145" y="11.869876" style="fill: #0072b2; stroke: #0072b2; stroke-width: 0.5"/>
     <use xlink:href="#mf6b21af6fd" x="115.394223" y="14.21739" style="fill: #0072b2; stroke: #0072b2; stroke-width: 0.5"/>
     <use xlink:href="#mf6b21af6fd" x="131.36729" y="16.186297" style="fill: #0072b2; stroke: #0072b2; stroke-width: 0.5"/>
     <use xlink:href="#mf6b21af6fd" x="143.756963" y="17.295907" style="fill: #0072b2; stroke: #0072b2; stroke-width: 0.5"/>
     <use xlink:href="#mf6b21af6fd" x="153.880063" y="18.155075" style="fill: #0072b2; stroke: #0072b2; stroke-width: 0.5"/>
     <use xlink:href="#mf6b21af6fd" x="169.85313" y="19.318888" style="fill: #0072b2; stroke: #0072b2; stroke-width: 0.5"/>
     <use xlink:href="#mf6b21af6fd" x="182.242803" y="19.959154" style="fill: #0072b2; stroke: #0072b2; stroke-width: 0.5"/>
     <use xlink:href="#mf6b21af6fd" x="204.755576" y="20.424632" style="fill: #0072b2; stroke: #0072b2; stroke-width: 0.5"/>
     <use xlink:href="#mf6b21af6fd" x="220.728643" y="20.468003" style="fill: #0072b2; stroke: #0072b2; stroke-width: 0.5"/>
    </g>
   </g>
   <g id="line2d_39">
    <g clip-path="url(#p6310ec1716)">
     <use xlink:href="#mf6b21af6fd" x="54.395611" y="8.761869" style="fill: #0072b2; stroke: #0072b2; stroke-width: 0.5"/>
     <use xlink:href="#mf6b21af6fd" x="92.88145" y="11.223673" style="fill: #0072b2; stroke: #0072b2; stroke-width: 0.5"/>
     <use xlink:href="#mf6b21af6fd" x="115.394223" y="13.571187" style="fill: #0072b2; stroke: #0072b2; stroke-width: 0.5"/>
     <use xlink:href="#mf6b21af6fd" x="131.36729" y="15.540094" style="fill: #0072b2; stroke: #0072b2; stroke-width: 0.5"/>
     <use xlink:href="#mf6b21af6fd" x="143.756963" y="16.649705" style="fill: #0072b2; stroke: #0072b2; stroke-width: 0.5"/>
     <use xlink:href="#mf6b21af6fd" x="153.880063" y="17.508872" style="fill: #0072b2; stroke: #0072b2; stroke-width: 0.5"/>
     <use xlink:href="#mf6b21af6fd" x="169.85313" y="18.672685" style="fill: #0072b2; stroke: #0072b2; stroke-width: 0.5"/>
     <use xlink:href="#mf6b21af6fd" x="182.242803" y="19.312951" style="fill: #0072b2; stroke: #0072b2; stroke-width: 0.5"/>
     <use xlink:href="#mf6b21af6fd" x="204.755576" y="19.77843" style="fill: #0072b2; stroke: #0072b2; stroke-width: 0.5"/>
     <use xlink:href="#mf6b21af6fd" x="220.728643" y="19.8218" style="fill: #0072b2; stroke: #0072b2; stroke-width: 0.5"/>
    </g>
   </g>
   <g id="line2d_40">
    <path clip-path="url(#p6310ec1716)" style="fill: none; stroke-dasharray: 2.96,1.28; stroke-dashoffset: 0; stroke: #000000; stroke-opacity: 0.7; stroke-width: 0.8"/>
   </g>
   <g id="line2d_41">
    <path d="M 54.395611 14.673989 
L 92.88145 23.40957 
L 115.394223 32.130069 
L 131.36729 41.270218 
L 143.756963 50.405804 
L 153.880063 59.478838 
L 169.85313 85.099194 
L 182.242803 110.733323 
L 204.755576 169.511805 
L 220.728643 121.596695 
" clip-path="url(#p6310ec1716)" style="fill: none; stroke: #d55e00; stroke-width: 1.5; stroke-linecap: square"/>
    <defs>
     <path id="m439eb97eaa" d="M -2 2 
L 2 2 
L 2 -2 
L -2 -2 
z
" style="stroke: #000000; stroke-width: 0.5; stroke-linejoin: miter"/>
    </defs>
    <g clip-path="url(#p6310ec1716)">
     <use xlink:href="#m439eb97eaa" x="54.395611" y="14.673989" style="fill: #d55e00; stroke: #000000; stroke-width: 0.5; stroke-linejoin: miter"/>
     <use xlink:href="#m439eb97eaa" x="92.88145" y="23.40957" style="fill: #d55e00; stroke: #000000; stroke-width: 0.5; stroke-linejoin: miter"/>
     <use xlink:href="#m439eb97eaa" x="115.394223" y="32.130069" style="fill: #d55e00; stroke: #000000; stroke-width: 0.5; stroke-linejoin: miter"/>
     <use xlink:href="#m439eb97eaa" x="131.36729" y="41.270218" style="fill: #d55e00; stroke: #000000; stroke-width: 0.5; stroke-linejoin: miter"/>
     <use xlink:href="#m439eb97eaa" x="143.756963" y="50.405804" style="fill: #d55e00; stroke: #000000; stroke-width: 0.5; stroke-linejoin: miter"/>
     <use xlink:href="#m439eb97eaa" x="153.880063" y="59.478838" style="fill: #d55e00; stroke: #000000; stroke-width: 0.5; stroke-linejoin: miter"/>
     <use xlink:href="#m439eb97eaa" x="169.85313" y="85.099194" style="fill: #d55e00; stroke: #000000; stroke-width: 0.5; stroke-linejoin: miter"/>
     <use xlink:href="#m439eb97eaa" x="182.242803" y="110.733323" style="fill: #d55e00; stroke: #000000; stroke-width: 0.5; stroke-linejoin: miter"/>
     <use xlink:href="#m439eb97eaa" x="204.755576" y="169.511805" style="fill: #d55e00; stroke: #000000; stroke-width: 0.5; stroke-linejoin: miter"/>
     <use xlink:href="#m439eb97eaa" x="220.728643" y="121.596695" style="fill: #d55e00; stroke: #000000; stroke-width: 0.5; stroke-linejoin: miter"/>
    </g>
   </g>
   <g id="line2d_42">
    <path d="M 54.395611 9.068789 
L 92.88145 11.530592 
L 115.394223 13.878106 
L 131.36729 15.847014 
L 143.756963 16.956624 
L 153.880063 17.815791 
L 169.85313 18.979604 
L 182.242803 19.61987 
L 204.755576 20.085349 
L 220.728643 20.12872 
" clip-path="url(#p6310ec1716)" style="fill: none; stroke: #0072b2; stroke-width: 1.5; stroke-linecap: square"/>
    <defs>
     <path id="m404762ff90" d="M 0 2 
C 0.530406 2 1.03916 1.789267 1.414214 1.414214 
C 1.789267 1.03916 2 0.530406 2 0 
C 2 -0.530406 1.789267 -1.03916 1.414214 -1.414214 
C 1.03916 -1.789267 0.530406 -2 0 -2 
C -0.530406 -2 -1.03916 -1.789267 -1.414214 -1.414214 
C -1.789267 -1.03916 -2 -0.530406 -2 0 
C -2 0.530406 -1.789267 1.03916 -1.414214 1.414214 
C -1.03916 1.789267 -0.530406 2 0 2 
z
" style="stroke: #000000; stroke-width: 0.5"/>
    </defs>
    <g clip-path="url(#p6310ec1716)">
     <use xlink:href="#m404762ff90" x="54.395611" y="9.068789" style="fill: #0072b2; stroke: #000000; stroke-width: 0.5"/>
     <use xlink:href="#m404762ff90" x="92.88145" y="11.530592" style="fill: #0072b2; stroke: #000000; stroke-width: 0.5"/>
     <use xlink:href="#m404762ff90" x="115.394223" y="13.878106" style="fill: #0072b2; stroke: #000000; stroke-width: 0.5"/>
     <use xlink:href="#m404762ff90" x="131.36729" y="15.847014" style="fill: #0072b2; stroke: #000000; stroke-width: 0.5"/>
     <use xlink:href="#m404762ff90" x="143.756963" y="16.956624" style="fill: #0072b2; stroke: #000000; stroke-width: 0.5"/>
     <use xlink:href="#m404762ff90" x="153.880063" y="17.815791" style="fill: #0072b2; stroke: #000000; stroke-width: 0.5"/>
     <use xlink:href="#m404762ff90" x="169.85313" y="18.979604" style="fill: #0072b2; stroke: #000000; stroke-width: 0.5"/>
     <use xlink:href="#m404762ff90" x="182.242803" y="19.61987" style="fill: #0072b2; stroke: #000000; stroke-width: 0.5"/>
     <use xlink:href="#m404762ff90" x="204.755576" y="20.085349" style="fill: #0072b2; stroke: #000000; stroke-width: 0.5"/>
     <use xlink:href="#m404762ff90" x="220.728643" y="20.12872" style="fill: #0072b2; stroke: #000000; stroke-width: 0.5"/>
    </g>
   </g>
   <g id="patch_3">
    <path d="M 42.005938 203.8 
L 42.005938 3.6 
" style="fill: none; stroke: #000000; stroke-width: 0.5; stroke-linejoin: miter; stroke-linecap: square"/>
   </g>
   <g id="patch_4">
    <path d="M 230.851743 203.8 
L 230.851743 3.6 
" style="fill: none; stroke: #000000; stroke-width: 0.5; stroke-linejoin: miter; stroke-linecap: square"/>
   </g>
   <g id="patch_5">
    <path d="M 42.005938 203.8 
L 230.851743 203.8 
" style="fill: none; stroke: #000000; stroke-width: 0.5; stroke-linejoin: miter; stroke-linecap: square"/>
   </g>
   <g id="patch_6">
    <path d="M 42.005938 3.6 
L 230.851743 3.6 
" style="fill: none; stroke: #000000; stroke-width: 0.5; stroke-linejoin: miter; stroke-linecap: square"/>
   </g>
   <g id="patch_7">
    <path d="M 158.502529 57.576834 
Q 157.105407 56.950238 156.218352 56.552403 
" style="fill: none; stroke: #000000; stroke-width: 0.5; stroke-linecap: round"/>
    <path d="M 157.917137 58.629451 
L 156.218352 56.552403 
L 158.899262 56.439604 
" style="fill: none; stroke: #000000; stroke-width: 0.5; stroke-linecap: round"/>
   </g>
   <g id="text_15">
    <g id="patch_8">
     <path d="M 162.222993 73.396146 
L 190.56268 73.396146 
Q 192.36268 73.396146 192.36268 71.596146 
L 192.36268 59.675083 
Q 192.36268 57.875083 190.56268 57.875083 
L 162.222993 57.875083 
Q 160.422993 57.875083 160.422993 59.675083 
L 160.422993 71.596146 
Q 160.422993 73.396146 162.222993 73.396146 
z
" style="fill: #ffffff; opacity: 0.9; stroke: #000000; stroke-linejoin: miter"/>
    </g>
    <!-- 95% CI -->
    <g transform="translate(166.55518 63.899458) scale(0.06 -0.06)">
     <defs>
      <path id="ArialMT-39" d="M 350 1059 
L 891 1109 
Q 959 728 1153 556 
Q 1347 384 1650 384 
Q 1909 384 2104 503 
Q 2300 622 2425 820 
Q 2550 1019 2634 1356 
Q 2719 1694 2719 2044 
Q 2719 2081 2716 2156 
Q 2547 1888 2255 1720 
Q 1963 1553 1622 1553 
Q 1053 1553 659 1965 
Q 266 2378 266 3053 
Q 266 3750 677 4175 
Q 1088 4600 1706 4600 
Q 2153 4600 2523 4359 
Q 2894 4119 3086 3673 
Q 3278 3228 3278 2384 
Q 3278 1506 3087 986 
Q 2897 466 2520 194 
Q 2144 -78 1638 -78 
Q 1100 -78 759 220 
Q 419 519 350 1059 
z
M 2653 3081 
Q 2653 3566 2395 3850 
Q 2138 4134 1775 4134 
Q 1400 4134 1122 3828 
Q 844 3522 844 3034 
Q 844 2597 1108 2323 
Q 1372 2050 1759 2050 
Q 2150 2050 2401 2323 
Q 2653 2597 2653 3081 
z
" transform="scale(0.015625)"/>
      <path id="ArialMT-25" d="M 372 3481 
Q 372 3972 619 4315 
Q 866 4659 1334 4659 
Q 1766 4659 2048 4351 
Q 2331 4044 2331 3447 
Q 2331 2866 2045 2552 
Q 1759 2238 1341 2238 
Q 925 2238 648 2547 
Q 372 2856 372 3481 
z
M 1350 4272 
Q 1141 4272 1002 4090 
Q 863 3909 863 3425 
Q 863 2984 1003 2804 
Q 1144 2625 1350 2625 
Q 1563 2625 1702 2806 
Q 1841 2988 1841 3469 
Q 1841 3913 1700 4092 
Q 1559 4272 1350 4272 
z
M 1353 -169 
L 3859 4659 
L 4316 4659 
L 1819 -169 
L 1353 -169 
z
M 3334 1075 
Q 3334 1569 3581 1911 
Q 3828 2253 4300 2253 
Q 4731 2253 5014 1945 
Q 5297 1638 5297 1041 
Q 5297 459 5011 145 
Q 4725 -169 4303 -169 
Q 3888 -169 3611 142 
Q 3334 453 3334 1075 
z
M 4316 1866 
Q 4103 1866 3964 1684 
Q 3825 1503 3825 1019 
Q 3825 581 3965 400 
Q 4106 219 4313 219 
Q 4528 219 4667 400 
Q 4806 581 4806 1063 
Q 4806 1506 4665 1686 
Q 4525 1866 4316 1866 
z
" transform="scale(0.015625)"/>
      <path id="ArialMT-43" d="M 3763 1606 
L 4369 1453 
Q 4178 706 3683 314 
Q 3188 -78 2472 -78 
Q 1731 -78 1267 223 
Q 803 525 561 1097 
Q 319 1669 319 2325 
Q 319 3041 592 3573 
Q 866 4106 1370 4382 
Q 1875 4659 2481 4659 
Q 3169 4659 3637 4309 
Q 4106 3959 4291 3325 
L 3694 3184 
Q 3534 3684 3231 3912 
Q 2928 4141 2469 4141 
Q 1941 4141 1586 3887 
Q 1231 3634 1087 3207 
Q 944 2781 944 2328 
Q 944 1744 1114 1308 
Q 1284 872 1643 656 
Q 2003 441 2422 441 
Q 2931 441 3284 734 
Q 3638 1028 3763 1606 
z
" transform="scale(0.015625)"/>
      <path id="ArialMT-49" d="M 597 0 
L 597 4581 
L 1203 4581 
L 1203 0 
L 597 0 
z
" transform="scale(0.015625)"/>
     </defs>
     <use xlink:href="#ArialMT-39"/>
     <use xlink:href="#ArialMT-35" x="55.615234"/>
     <use xlink:href="#ArialMT-25" x="111.230469"/>
     <use xlink:href="#ArialMT-20" x="200.146484"/>
     <use xlink:href="#ArialMT-43" x="227.929688"/>
     <use xlink:href="#ArialMT-49" x="300.146484"/>
    </g>
    <!-- (100 trials) -->
    <g transform="translate(162.222993 70.333333) scale(0.06 -0.06)">
     <defs>
      <path id="ArialMT-28" d="M 1497 -1347 
Q 1031 -759 709 28 
Q 388 816 388 1659 
Q 388 2403 628 3084 
Q 909 3875 1497 4659 
L 1900 4659 
Q 1522 4009 1400 3731 
Q 1209 3300 1100 2831 
Q 966 2247 966 1656 
Q 966 153 1900 -1347 
L 1497 -1347 
z
" transform="scale(0.015625)"/>
      <path id="ArialMT-6c" d="M 409 0 
L 409 4581 
L 972 4581 
L 972 0 
L 409 0 
z
" transform="scale(0.015625)"/>
      <path id="ArialMT-29" d="M 791 -1347 
L 388 -1347 
Q 1322 153 1322 1656 
Q 1322 2244 1188 2822 
Q 1081 3291 891 3722 
Q 769 4003 388 4659 
L 791 4659 
Q 1378 3875 1659 3084 
Q 1900 2403 1900 1659 
Q 1900 816 1576 28 
Q 1253 -759 791 -1347 
z
" transform="scale(0.015625)"/>
     </defs>
     <use xlink:href="#ArialMT-28"/>
     <use xlink:href="#ArialMT-31" x="33.300781"/>
     <use xlink:href="#ArialMT-30" x="88.916016"/>
     <use xlink:href="#ArialMT-30" x="144.53125"/>
     <use xlink:href="#ArialMT-20" x="200.146484"/>
     <use xlink:href="#ArialMT-74" x="227.929688"/>
     <use xlink:href="#ArialMT-72" x="255.712891"/>
     <use xlink:href="#ArialMT-69" x="289.013672"/>
     <use xlink:href="#ArialMT-61" x="311.230469"/>
     <use xlink:href="#ArialMT-6c" x="366.845703"/>
     <use xlink:href="#ArialMT-73" x="389.0625"/>
     <use xlink:href="#ArialMT-29" x="439.0625"/>
    </g>
   </g>
   <g id="patch_9">
    <path d="M 212.762186 26.493105 
Q 215.965495 23.933988 218.732051 21.723793 
" style="fill: none; stroke: #000000; stroke-width: 0.5; stroke-linecap: round"/>
    <path d="M 216.107954 22.284254 
L 218.732051 21.723793 
L 217.605962 24.159347 
" style="fill: none; stroke: #000000; stroke-width: 0.5; stroke-linecap: round"/>
   </g>
   <g id="text_16">
    <g id="patch_10">
     <path d="M 182.087675 43.658137 
L 219.76205 43.658137 
Q 221.56205 43.658137 221.56205 41.858137 
L 221.56205 30.041699 
Q 221.56205 28.241699 219.76205 28.241699 
L 182.087675 28.241699 
Q 180.287675 28.241699 180.287675 30.041699 
L 180.287675 41.858137 
Q 180.287675 43.658137 182.087675 43.658137 
z
" style="fill: #ffffff; opacity: 0.9; stroke: #000000; stroke-linejoin: miter"/>
    </g>
    <!-- 4.83×10¹¹× -->
    <g transform="translate(186.247831 34.336387) scale(0.06 -0.06)">
     <defs>
      <path id="Arial-BoldMT-34" d="M 1994 0 
L 1994 922 
L 119 922 
L 119 1691 
L 2106 4600 
L 2844 4600 
L 2844 1694 
L 3413 1694 
L 3413 922 
L 2844 922 
L 2844 0 
L 1994 0 
z
M 1994 1694 
L 1994 3259 
L 941 1694 
L 1994 1694 
z
" transform="scale(0.015625)"/>
      <path id="Arial-BoldMT-2e" d="M 459 0 
L 459 878 
L 1338 878 
L 1338 0 
L 459 0 
z
" transform="scale(0.015625)"/>
      <path id="Arial-BoldMT-38" d="M 1025 2472 
Q 684 2616 529 2867 
Q 375 3119 375 3419 
Q 375 3931 733 4265 
Q 1091 4600 1750 4600 
Q 2403 4600 2764 4265 
Q 3125 3931 3125 3419 
Q 3125 3100 2959 2851 
Q 2794 2603 2494 2472 
Q 2875 2319 3073 2025 
Q 3272 1731 3272 1347 
Q 3272 713 2867 316 
Q 2463 -81 1791 -81 
Q 1166 -81 750 247 
Q 259 634 259 1309 
Q 259 1681 443 1992 
Q 628 2303 1025 2472 
z
M 1206 3356 
Q 1206 3094 1354 2947 
Q 1503 2800 1750 2800 
Q 2000 2800 2150 2948 
Q 2300 3097 2300 3359 
Q 2300 3606 2151 3754 
Q 2003 3903 1759 3903 
Q 1506 3903 1356 3753 
Q 1206 3603 1206 3356 
z
M 1125 1394 
Q 1125 1031 1311 828 
Q 1497 625 1775 625 
Q 2047 625 2225 820 
Q 2403 1016 2403 1384 
Q 2403 1706 2222 1901 
Q 2041 2097 1763 2097 
Q 1441 2097 1283 1875 
Q 1125 1653 1125 1394 
z
" transform="scale(0.015625)"/>
      <path id="Arial-BoldMT-33" d="M 241 1216 
L 1091 1319 
Q 1131 994 1309 822 
Q 1488 650 1741 650 
Q 2013 650 2198 856 
Q 2384 1063 2384 1413 
Q 2384 1744 2206 1937 
Q 2028 2131 1772 2131 
Q 1603 2131 1369 2066 
L 1466 2781 
Q 1822 2772 2009 2936 
Q 2197 3100 2197 3372 
Q 2197 3603 2059 3740 
Q 1922 3878 1694 3878 
Q 1469 3878 1309 3722 
Q 1150 3566 1116 3266 
L 306 3403 
Q 391 3819 561 4067 
Q 731 4316 1036 4458 
Q 1341 4600 1719 4600 
Q 2366 4600 2756 4188 
Q 3078 3850 3078 3425 
Q 3078 2822 2419 2463 
Q 2813 2378 3048 2084 
Q 3284 1791 3284 1375 
Q 3284 772 2843 347 
Q 2403 -78 1747 -78 
Q 1125 -78 715 280 
Q 306 638 241 1216 
z
" transform="scale(0.015625)"/>
      <path id="Arial-BoldMT-d7" d="M 347 1313 
L 1291 2256 
L 341 3203 
L 922 3784 
L 1872 2838 
L 2816 3781 
L 3381 3213 
L 2438 2269 
L 3391 1316 
L 2809 734 
L 1856 1688 
L 913 744 
L 347 1313 
z
" transform="scale(0.015625)"/>
      <path id="Arial-BoldMT-31" d="M 2519 0 
L 1641 0 
L 1641 3309 
Q 1159 2859 506 2644 
L 506 3441 
Q 850 3553 1253 3867 
Q 1656 4181 1806 4600 
L 2519 4600 
L 2519 0 
z
" transform="scale(0.015625)"/>
      <path id="Arial-BoldMT-30" d="M 1756 4600 
Q 2422 4600 2797 4125 
Q 3244 3563 3244 2259 
Q 3244 959 2794 391 
Q 2422 -78 1756 -78 
Q 1088 -78 678 436 
Q 269 950 269 2269 
Q 269 3563 719 4131 
Q 1091 4600 1756 4600 
z
M 1756 3872 
Q 1597 3872 1472 3770 
Q 1347 3669 1278 3406 
Q 1188 3066 1188 2259 
Q 1188 1453 1269 1151 
Q 1350 850 1473 750 
Q 1597 650 1756 650 
Q 1916 650 2041 751 
Q 2166 853 2234 1116 
Q 2325 1453 2325 2259 
Q 2325 3066 2244 3367 
Q 2163 3669 2039 3770 
Q 1916 3872 1756 3872 
z
" transform="scale(0.015625)"/>
      <path id="Arial-BoldMT-b9" d="M 1547 2272 
L 953 2272 
L 953 3875 
Q 659 3672 284 3569 
L 284 4053 
Q 581 4138 822 4325 
Q 991 4456 1066 4638 
L 1547 4638 
L 1547 2272 
z
" transform="scale(0.015625)"/>
     </defs>
     <use xlink:href="#Arial-BoldMT-34"/>
     <use xlink:href="#Arial-BoldMT-2e" x="55.615234"/>
     <use xlink:href="#Arial-BoldMT-38" x="83.398438"/>
     <use xlink:href="#Arial-BoldMT-33" x="139.013672"/>
     <use xlink:href="#Arial-BoldMT-d7" x="194.628906"/>
     <use xlink:href="#Arial-BoldMT-31" x="253.027344"/>
     <use xlink:href="#Arial-BoldMT-30" x="308.642578"/>
     <use xlink:href="#Arial-BoldMT-b9" x="364.257812"/>
     <use xlink:href="#Arial-BoldMT-b9" x="397.558594"/>
     <use xlink:href="#Arial-BoldMT-d7" x="430.859375"/>
    </g>
    <!-- improvement -->
    <g transform="translate(182.087675 40.674074) scale(0.06 -0.06)">
     <defs>
      <path id="Arial-BoldMT-69" d="M 459 3769 
L 459 4581 
L 1338 4581 
L 1338 3769 
L 459 3769 
z
M 459 0 
L 459 3319 
L 1338 3319 
L 1338 0 
L 459 0 
z
" transform="scale(0.015625)"/>
      <path id="Arial-BoldMT-6d" d="M 394 3319 
L 1203 3319 
L 1203 2866 
Q 1638 3394 2238 3394 
Q 2556 3394 2790 3262 
Q 3025 3131 3175 2866 
Q 3394 3131 3647 3262 
Q 3900 3394 4188 3394 
Q 4553 3394 4806 3245 
Q 5059 3097 5184 2809 
Q 5275 2597 5275 2122 
L 5275 0 
L 4397 0 
L 4397 1897 
Q 4397 2391 4306 2534 
Q 4184 2722 3931 2722 
Q 3747 2722 3584 2609 
Q 3422 2497 3350 2280 
Q 3278 2063 3278 1594 
L 3278 0 
L 2400 0 
L 2400 1819 
Q 2400 2303 2353 2443 
Q 2306 2584 2207 2653 
Q 2109 2722 1941 2722 
Q 1738 2722 1575 2612 
Q 1413 2503 1342 2297 
Q 1272 2091 1272 1613 
L 1272 0 
L 394 0 
L 394 3319 
z
" transform="scale(0.015625)"/>
      <path id="Arial-BoldMT-70" d="M 434 3319 
L 1253 3319 
L 1253 2831 
Q 1413 3081 1684 3237 
Q 1956 3394 2288 3394 
Q 2866 3394 3269 2941 
Q 3672 2488 3672 1678 
Q 3672 847 3265 386 
Q 2859 -75 2281 -75 
Q 2006 -75 1782 34 
Q 1559 144 1313 409 
L 1313 -1263 
L 434 -1263 
L 434 3319 
z
M 1303 1716 
Q 1303 1156 1525 889 
Q 1747 622 2066 622 
Q 2372 622 2575 867 
Q 2778 1113 2778 1672 
Q 2778 2194 2568 2447 
Q 2359 2700 2050 2700 
Q 1728 2700 1515 2451 
Q 1303 2203 1303 1716 
z
" transform="scale(0.015625)"/>
      <path id="Arial-BoldMT-72" d="M 1300 0 
L 422 0 
L 422 3319 
L 1238 3319 
L 1238 2847 
Q 1447 3181 1614 3287 
Q 1781 3394 1994 3394 
Q 2294 3394 2572 3228 
L 2300 2463 
Q 2078 2606 1888 2606 
Q 1703 2606 1575 2504 
Q 1447 2403 1373 2137 
Q 1300 1872 1300 1025 
L 1300 0 
z
" transform="scale(0.015625)"/>
      <path id="Arial-BoldMT-6f" d="M 256 1706 
Q 256 2144 472 2553 
Q 688 2963 1083 3178 
Q 1478 3394 1966 3394 
Q 2719 3394 3200 2905 
Q 3681 2416 3681 1669 
Q 3681 916 3195 420 
Q 2709 -75 1972 -75 
Q 1516 -75 1102 131 
Q 688 338 472 736 
Q 256 1134 256 1706 
z
M 1156 1659 
Q 1156 1166 1390 903 
Q 1625 641 1969 641 
Q 2313 641 2545 903 
Q 2778 1166 2778 1666 
Q 2778 2153 2545 2415 
Q 2313 2678 1969 2678 
Q 1625 2678 1390 2415 
Q 1156 2153 1156 1659 
z
" transform="scale(0.015625)"/>
      <path id="Arial-BoldMT-76" d="M 1372 0 
L 34 3319 
L 956 3319 
L 1581 1625 
L 1763 1059 
Q 1834 1275 1853 1344 
Q 1897 1484 1947 1625 
L 2578 3319 
L 3481 3319 
L 2163 0 
L 1372 0 
z
" transform="scale(0.015625)"/>
      <path id="Arial-BoldMT-65" d="M 2381 1056 
L 3256 909 
Q 3088 428 2723 176 
Q 2359 -75 1813 -75 
Q 947 -75 531 491 
Q 203 944 203 1634 
Q 203 2459 634 2926 
Q 1066 3394 1725 3394 
Q 2466 3394 2894 2905 
Q 3322 2416 3303 1406 
L 1103 1406 
Q 1113 1016 1316 798 
Q 1519 581 1822 581 
Q 2028 581 2168 693 
Q 2309 806 2381 1056 
z
M 2431 1944 
Q 2422 2325 2234 2523 
Q 2047 2722 1778 2722 
Q 1491 2722 1303 2513 
Q 1116 2303 1119 1944 
L 2431 1944 
z
" transform="scale(0.015625)"/>
      <path id="Arial-BoldMT-6e" d="M 3478 0 
L 2600 0 
L 2600 1694 
Q 2600 2231 2544 2389 
Q 2488 2547 2361 2634 
Q 2234 2722 2056 2722 
Q 1828 2722 1647 2597 
Q 1466 2472 1398 2265 
Q 1331 2059 1331 1503 
L 1331 0 
L 453 0 
L 453 3319 
L 1269 3319 
L 1269 2831 
Q 1703 3394 2363 3394 
Q 2653 3394 2893 3289 
Q 3134 3184 3257 3021 
Q 3381 2859 3429 2653 
Q 3478 2447 3478 2063 
L 3478 0 
z
" transform="scale(0.015625)"/>
      <path id="Arial-BoldMT-74" d="M 1981 3319 
L 1981 2619 
L 1381 2619 
L 1381 1281 
Q 1381 875 1398 808 
Q 1416 741 1477 697 
Q 1538 653 1625 653 
Q 1747 653 1978 738 
L 2053 56 
Q 1747 -75 1359 -75 
Q 1122 -75 931 4 
Q 741 84 652 211 
Q 563 338 528 553 
Q 500 706 500 1172 
L 500 2619 
L 97 2619 
L 97 3319 
L 500 3319 
L 500 3978 
L 1381 4491 
L 1381 3319 
L 1981 3319 
z
" transform="scale(0.015625)"/>
     </defs>
     <use xlink:href="#Arial-BoldMT-69"/>
     <use xlink:href="#Arial-BoldMT-6d" x="27.783203"/>
     <use xlink:href="#Arial-BoldMT-70" x="116.699219"/>
     <use xlink:href="#Arial-BoldMT-72" x="177.783203"/>
     <use xlink:href="#Arial-BoldMT-6f" x="216.699219"/>
     <use xlink:href="#Arial-BoldMT-76" x="277.783203"/>
     <use xlink:href="#Arial-BoldMT-65" x="333.398438"/>
     <use xlink:href="#Arial-BoldMT-6d" x="389.013672"/>
     <use xlink:href="#Arial-BoldMT-65" x="477.929688"/>
     <use xlink:href="#Arial-BoldMT-6e" x="533.544922"/>
     <use xlink:href="#Arial-BoldMT-74" x="594.628906"/>
    </g>
   </g>
   <g id="text_17">
    <!-- c -->
    <g transform="translate(45.782854 15.477594) scale(0.11 -0.11)">
     <defs>
      <path id="Arial-BoldMT-63" d="M 3353 2338 
L 2488 2181 
Q 2444 2441 2289 2572 
Q 2134 2703 1888 2703 
Q 1559 2703 1364 2476 
Q 1169 2250 1169 1719 
Q 1169 1128 1367 884 
Q 1566 641 1900 641 
Q 2150 641 2309 783 
Q 2469 925 2534 1272 
L 3397 1125 
Q 3263 531 2881 228 
Q 2500 -75 1859 -75 
Q 1131 -75 698 384 
Q 266 844 266 1656 
Q 266 2478 700 2936 
Q 1134 3394 1875 3394 
Q 2481 3394 2839 3133 
Q 3197 2872 3353 2338 
z
" transform="scale(0.015625)"/>
     </defs>
     <use xlink:href="#Arial-BoldMT-63"/>
    </g>
   </g>
   <g id="legend_1">
    <g id="patch_11">
     <path d="M 45.005938 200.8 
L 121.965313 200.8 
L 121.965313 181.94875 
L 45.005938 181.94875 
z
" style="fill: #ffffff; opacity: 0.8; stroke: #000000; stroke-linejoin: miter"/>
    </g>
    <g id="LineCollection_3">
     <path d="M 53.405938 189.543437 
L 53.405938 183.543437 
" style="fill: none; stroke: #d55e00; stroke-width: 0.5"/>
    </g>
    <g id="line2d_43">
     <g>
      <use xlink:href="#m4401568455" x="53.405938" y="189.543437" style="fill: #d55e00; stroke: #d55e00; stroke-width: 0.5"/>
     </g>
    </g>
    <g id="line2d_44">
     <g>
      <use xlink:href="#m4401568455" x="53.405938" y="183.543437" style="fill: #d55e00; stroke: #d55e00; stroke-width: 0.5"/>
     </g>
    </g>
    <g id="line2d_45">
     <path d="M 47.405938 186.543437 
L 59.405938 186.543437 
" style="fill: none; stroke: #d55e00; stroke-width: 1.5; stroke-linecap: square"/>
    </g>
    <g id="line2d_46">
     <g>
      <use xlink:href="#m439eb97eaa" x="53.405938" y="186.543437" style="fill: #d55e00; stroke: #000000; stroke-width: 0.5; stroke-linejoin: miter"/>
     </g>
    </g>
    <g id="text_18">
     <!-- Random initialization -->
     <g transform="translate(64.205938 188.643437) scale(0.06 -0.06)">
      <defs>
       <path id="ArialMT-52" d="M 503 0 
L 503 4581 
L 2534 4581 
Q 3147 4581 3465 4457 
Q 3784 4334 3975 4021 
Q 4166 3709 4166 3331 
Q 4166 2844 3850 2509 
Q 3534 2175 2875 2084 
Q 3116 1969 3241 1856 
Q 3506 1613 3744 1247 
L 4541 0 
L 3778 0 
L 3172 953 
Q 2906 1366 2734 1584 
Q 2563 1803 2427 1890 
Q 2291 1978 2150 2013 
Q 2047 2034 1813 2034 
L 1109 2034 
L 1109 0 
L 503 0 
z
M 1109 2559 
L 2413 2559 
Q 2828 2559 3062 2645 
Q 3297 2731 3419 2920 
Q 3541 3109 3541 3331 
Q 3541 3656 3305 3865 
Q 3069 4075 2559 4075 
L 1109 4075 
L 1109 2559 
z
" transform="scale(0.015625)"/>
       <path id="ArialMT-7a" d="M 125 0 
L 125 456 
L 2238 2881 
Q 1878 2863 1603 2863 
L 250 2863 
L 250 3319 
L 2963 3319 
L 2963 2947 
L 1166 841 
L 819 456 
Q 1197 484 1528 484 
L 3063 484 
L 3063 0 
L 125 0 
z
" transform="scale(0.015625)"/>
      </defs>
      <use xlink:href="#ArialMT-52"/>
      <use xlink:href="#ArialMT-61" x="72.216797"/>
      <use xlink:href="#ArialMT-6e" x="127.832031"/>
      <use xlink:href="#ArialMT-64" x="183.447266"/>
      <use xlink:href="#ArialMT-6f" x="239.0625"/>
      <use xlink:href="#ArialMT-6d" x="294.677734"/>
      <use xlink:href="#ArialMT-20" x="377.978516"/>
      <use xlink:href="#ArialMT-69" x="405.761719"/>
      <use xlink:href="#ArialMT-6e" x="427.978516"/>
      <use xlink:href="#ArialMT-69" x="483.59375"/>
      <use xlink:href="#ArialMT-74" x="505.810547"/>
      <use xlink:href="#ArialMT-69" x="533.59375"/>
      <use xlink:href="#ArialMT-61" x="555.810547"/>
      <use xlink:href="#ArialMT-6c" x="611.425781"/>
      <use xlink:href="#ArialMT-69" x="633.642578"/>
      <use xlink:href="#ArialMT-7a" x="655.859375"/>
      <use xlink:href="#ArialMT-61" x="705.859375"/>
      <use xlink:href="#ArialMT-74" x="761.474609"/>
      <use xlink:href="#ArialMT-69" x="789.257812"/>
      <use xlink:href="#ArialMT-6f" x="811.474609"/>
      <use xlink:href="#ArialMT-6e" x="867.089844"/>
     </g>
    </g>
    <g id="LineCollection_4">
     <path d="M 53.405938 198.1075 
L 53.405938 192.1075 
" style="fill: none; stroke: #0072b2; stroke-width: 0.5"/>
    </g>
    <g id="line2d_47">
     <g>
      <use xlink:href="#mf6b21af6fd" x="53.405938" y="198.1075" style="fill: #0072b2; stroke: #0072b2; stroke-width: 0.5"/>
     </g>
    </g>
    <g id="line2d_48">
     <g>
      <use xlink:href="#mf6b21af6fd" x="53.405938" y="192.1075" style="fill: #0072b2; stroke: #0072b2; stroke-width: 0.5"/>
     </g>
    </g>
    <g id="line2d_49">
     <path d="M 47.405938 195.1075 
L 59.405938 195.1075 
" style="fill: none; stroke: #0072b2; stroke-width: 1.5; stroke-linecap: square"/>
    </g>
    <g id="line2d_50">
     <g>
      <use xlink:href="#m404762ff90" x="53.405938" y="195.1075" style="fill: #0072b2; stroke: #000000; stroke-width: 0.5"/>
     </g>
    </g>
    <g id="text_19">
     <!-- AdaptiveQuantum -->
     <g transform="translate(64.205938 197.2075) scale(0.06 -0.06)">
      <defs>
       <path id="ArialMT-41" d="M -9 0 
L 1750 4581 
L 2403 4581 
L 4278 0 
L 3588 0 
L 3053 1388 
L 1138 1388 
L 634 0 
L -9 0 
z
M 1313 1881 
L 2866 1881 
L 2388 3150 
Q 2169 3728 2063 4100 
Q 1975 3659 1816 3225 
L 1313 1881 
z
" transform="scale(0.015625)"/>
       <path id="ArialMT-70" d="M 422 -1272 
L 422 3319 
L 934 3319 
L 934 2888 
Q 1116 3141 1344 3267 
Q 1572 3394 1897 3394 
Q 2322 3394 2647 3175 
Q 2972 2956 3137 2557 
Q 3303 2159 3303 1684 
Q 3303 1175 3120 767 
Q 2938 359 2589 142 
Q 2241 -75 1856 -75 
Q 1575 -75 1351 44 
Q 1128 163 984 344 
L 984 -1272 
L 422 -1272 
z
M 931 1641 
Q 931 1000 1190 694 
Q 1450 388 1819 388 
Q 2194 388 2461 705 
Q 2728 1022 2728 1688 
Q 2728 2322 2467 2637 
Q 2206 2953 1844 2953 
Q 1484 2953 1207 2617 
Q 931 2281 931 1641 
z
" transform="scale(0.015625)"/>
       <path id="ArialMT-76" d="M 1344 0 
L 81 3319 
L 675 3319 
L 1388 1331 
Q 1503 1009 1600 663 
Q 1675 925 1809 1294 
L 2547 3319 
L 3125 3319 
L 1869 0 
L 1344 0 
z
" transform="scale(0.015625)"/>
       <path id="ArialMT-51" d="M 3966 491 
Q 4388 200 4744 66 
L 4566 -356 
Q 4072 -178 3581 206 
Q 3072 -78 2456 -78 
Q 1834 -78 1328 222 
Q 822 522 548 1065 
Q 275 1609 275 2291 
Q 275 2969 550 3525 
Q 825 4081 1333 4372 
Q 1841 4663 2469 4663 
Q 3103 4663 3612 4361 
Q 4122 4059 4389 3517 
Q 4656 2975 4656 2294 
Q 4656 1728 4484 1276 
Q 4313 825 3966 491 
z
M 2631 1266 
Q 3156 1119 3497 828 
Q 4031 1316 4031 2294 
Q 4031 2850 3842 3265 
Q 3653 3681 3289 3911 
Q 2925 4141 2472 4141 
Q 1794 4141 1347 3677 
Q 900 3213 900 2291 
Q 900 1397 1342 919 
Q 1784 441 2472 441 
Q 2797 441 3084 563 
Q 2800 747 2484 825 
L 2631 1266 
z
" transform="scale(0.015625)"/>
      </defs>
      <use xlink:href="#ArialMT-41"/>
      <use xlink:href="#ArialMT-64" x="66.699219"/>
      <use xlink:href="#ArialMT-61" x="122.314453"/>
      <use xlink:href="#ArialMT-70" x="177.929688"/>
      <use xlink:href="#ArialMT-74" x="233.544922"/>
      <use xlink:href="#ArialMT-69" x="261.328125"/>
      <use xlink:href="#ArialMT-76" x="283.544922"/>
      <use xlink:href="#ArialMT-65" x="333.544922"/>
      <use xlink:href="#ArialMT-51" x="389.160156"/>
      <use xlink:href="#ArialMT-75" x="466.943359"/>
      <use xlink:href="#ArialMT-61" x="522.558594"/>
      <use xlink:href="#ArialMT-6e" x="578.173828"/>
      <use xlink:href="#ArialMT-74" x="633.789062"/>
      <use xlink:href="#ArialMT-75" x="661.572266"/>
      <use xlink:href="#ArialMT-6d" x="717.1875"/>
     </g>
    </g>
   </g>
  </g>
 </g>
 <defs>
  <clipPath id="p6310ec1716">
   <rect x="42.005938" y="3.6" width="188.845805" height="200.2"/>
  </clipPath>
 </defs>
</svg>
