<?xml version="1.0" encoding="utf-8" standalone="no"?>
<!DOCTYPE svg PUBLIC "-//W3C//DTD SVG 1.1//EN"
  "http://www.w3.org/Graphics/SVG/1.1/DTD/svg11.dtd">
<svg xmlns:xlink="http://www.w3.org/1999/xlink" width="233.699528pt" height="231.496063pt" viewBox="0 0 233.699528 231.496063" xmlns="http://www.w3.org/2000/svg" version="1.1">
 <metadata>
  <rdf:RDF xmlns:dc="http://purl.org/dc/elements/1.1/" xmlns:cc="http://creativecommons.org/ns#" xmlns:rdf="http://www.w3.org/1999/02/22-rdf-syntax-ns#">
   <cc:Work>
    <dc:type rdf:resource="http://purl.org/dc/dcmitype/StillImage"/>
    <dc:date>2026-02-04T18:39:40.426347</dc:date>
    <dc:format>image/svg+xml</dc:format>
    <dc:creator>
     <cc:Agent>
      <dc:title>Matplotlib v3.8.2, https://matplotlib.org/</dc:title>
     </cc:Agent>
    </dc:creator>
   </cc:Work>
  </rdf:RDF>
 </metadata>
 <defs>
  <style type="text/css">*{stroke-linejoin: round; stroke-linecap: butt}</style>
 </defs>
 <g id="figure_1">
  <g id="patch_1">
   <path d="M 0 231.496063 
L 233.699528 231.496063 
L 233.699528 0 
L 0 0 
z
" style="fill: #ffffff"/>
  </g>
  <g id="axes_1">
   <g id="patch_2">
    <path d="M 26.249953 84.346583 
L 82.874835 84.346583 
Q 85.13983 84.346583 85.13983 82.103622 
L 85.13983 59.674016 
Q 85.13983 57.431055 82.874835 57.431055 
L 26.249953 57.431055 
Q 23.984957 57.431055 23.984957 59.674016 
L 23.984957 82.103622 
Q 23.984957 84.346583 26.249953 84.346583 
z
" clip-path="url(#p60cf4d97b0)" style="fill: #d62728; opacity: 0.3; stroke: #d62728; stroke-width: 0.5; stroke-linejoin: miter"/>
   </g>
   <g id="patch_3">
    <path d="M 26.249953 140.420598 
L 82.874835 140.420598 
Q 85.13983 140.420598 85.13983 138.177638 
L 85.13983 115.748031 
Q 85.13983 113.505071 82.874835 113.505071 
L 26.249953 113.505071 
Q 23.984957 113.505071 23.984957 115.748031 
L 23.984957 138.177638 
Q 23.984957 140.420598 26.249953 140.420598 
z
" clip-path="url(#p60cf4d97b0)" style="fill: #d62728; opacity: 0.3; stroke: #d62728; stroke-width: 0.5; stroke-linejoin: miter"/>
   </g>
   <g id="patch_4">
    <path d="M 26.249953 196.494614 
L 82.874835 196.494614 
Q 85.13983 196.494614 85.13983 194.251654 
L 85.13983 171.822047 
Q 85.13983 169.579087 82.874835 169.579087 
L 26.249953 169.579087 
Q 23.984957 169.579087 23.984957 171.822047 
L 23.984957 194.251654 
Q 23.984957 196.494614 26.249953 196.494614 
z
" clip-path="url(#p60cf4d97b0)" style="fill: #d62728; opacity: 0.3; stroke: #d62728; stroke-width: 0.5; stroke-linejoin: miter"/>
   </g>
   <g id="patch_5">
    <path d="M 94.199811 84.346583 
L 150.824693 84.346583 
Q 153.089688 84.346583 153.089688 82.103622 
L 153.089688 59.674016 
Q 153.089688 57.431055 150.824693 57.431055 
L 94.199811 57.431055 
Q 91.934816 57.431055 91.934816 59.674016 
L 91.934816 82.103622 
Q 91.934816 84.346583 94.199811 84.346583 
z
" clip-path="url(#p60cf4d97b0)" style="fill: #2ca02c; opacity: 0.3; stroke: #2ca02c; stroke-width: 0.5; stroke-linejoin: miter"/>
   </g>
   <g id="patch_6">
    <path d="M 94.199811 140.420598 
L 150.824693 140.420598 
Q 153.089688 140.420598 153.089688 138.177638 
L 153.089688 115.748031 
Q 153.089688 113.505071 150.824693 113.505071 
L 94.199811 113.505071 
Q 91.934816 113.505071 91.934816 115.748031 
L 91.934816 138.177638 
Q 91.934816 140.420598 94.199811 140.420598 
z
" clip-path="url(#p60cf4d97b0)" style="fill: #2ca02c; opacity: 0.3; stroke: #2ca02c; stroke-width: 0.5; stroke-linejoin: miter"/>
   </g>
   <g id="patch_7">
    <path d="M 94.199811 196.494614 
L 150.824693 196.494614 
Q 153.089688 196.494614 153.089688 194.251654 
L 153.089688 171.822047 
Q 153.089688 169.579087 150.824693 169.579087 
L 94.199811 169.579087 
Q 91.934816 169.579087 91.934816 171.822047 
L 91.934816 194.251654 
Q 91.934816 196.494614 94.199811 196.494614 
z
" clip-path="url(#p60cf4d97b0)" style="fill: #2ca02c; opacity: 0.3; stroke: #2ca02c; stroke-width: 0.5; stroke-linejoin: miter"/>
   </g>
   <g id="patch_8">
    <path d="M 162.149669 151.635402 
L 218.774551 151.635402 
Q 221.039546 151.635402 221.039546 149.392441 
L 221.039546 82.103622 
Q 221.039546 79.860661 218.774551 79.860661 
L 162.149669 79.860661 
Q 159.884674 79.860661 159.884674 82.103622 
L 159.884674 149.392441 
Q 159.884674 151.635402 162.149669 151.635402 
z
" clip-path="url(#p60cf4d97b0)" style="fill: #1f77b4; opacity: 0.3; stroke: #1f77b4; stroke-width: 0.5; stroke-linejoin: miter"/>
   </g>
   <g id="text_1">
    <!-- Barren Plateaus: -->
    <g style="fill: #d62728" transform="translate(26.746691 69.006366) scale(0.07 -0.07)">
     <defs>
      <path id="Arial-BoldMT-42" d="M 469 4581 
L 2300 4581 
Q 2844 4581 3111 4536 
Q 3378 4491 3589 4347 
Q 3800 4203 3940 3964 
Q 4081 3725 4081 3428 
Q 4081 3106 3907 2837 
Q 3734 2569 3438 2434 
Q 3856 2313 4081 2019 
Q 4306 1725 4306 1328 
Q 4306 1016 4161 720 
Q 4016 425 3764 248 
Q 3513 72 3144 31 
Q 2913 6 2028 0 
L 469 0 
L 469 4581 
z
M 1394 3819 
L 1394 2759 
L 2000 2759 
Q 2541 2759 2672 2775 
Q 2909 2803 3045 2939 
Q 3181 3075 3181 3297 
Q 3181 3509 3064 3642 
Q 2947 3775 2716 3803 
Q 2578 3819 1925 3819 
L 1394 3819 
z
M 1394 1997 
L 1394 772 
L 2250 772 
Q 2750 772 2884 800 
Q 3091 838 3220 983 
Q 3350 1128 3350 1372 
Q 3350 1578 3250 1722 
Q 3150 1866 2961 1931 
Q 2772 1997 2141 1997 
L 1394 1997 
z
" transform="scale(0.015625)"/>
      <path id="Arial-BoldMT-61" d="M 1116 2306 
L 319 2450 
Q 453 2931 781 3162 
Q 1109 3394 1756 3394 
Q 2344 3394 2631 3255 
Q 2919 3116 3036 2902 
Q 3153 2688 3153 2116 
L 3144 1091 
Q 3144 653 3186 445 
Q 3228 238 3344 0 
L 2475 0 
Q 2441 88 2391 259 
Q 2369 338 2359 363 
Q 2134 144 1878 34 
Q 1622 -75 1331 -75 
Q 819 -75 523 203 
Q 228 481 228 906 
Q 228 1188 362 1408 
Q 497 1628 739 1745 
Q 981 1863 1438 1950 
Q 2053 2066 2291 2166 
L 2291 2253 
Q 2291 2506 2166 2614 
Q 2041 2722 1694 2722 
Q 1459 2722 1328 2630 
Q 1197 2538 1116 2306 
z
M 2291 1594 
Q 2122 1538 1756 1459 
Q 1391 1381 1278 1306 
Q 1106 1184 1106 997 
Q 1106 813 1243 678 
Q 1381 544 1594 544 
Q 1831 544 2047 700 
Q 2206 819 2256 991 
Q 2291 1103 2291 1419 
L 2291 1594 
z
" transform="scale(0.015625)"/>
      <path id="Arial-BoldMT-72" d="M 1300 0 
L 422 0 
L 422 3319 
L 1238 3319 
L 1238 2847 
Q 1447 3181 1614 3287 
Q 1781 3394 1994 3394 
Q 2294 3394 2572 3228 
L 2300 2463 
Q 2078 2606 1888 2606 
Q 1703 2606 1575 2504 
Q 1447 2403 1373 2137 
Q 1300 1872 1300 1025 
L 1300 0 
z
" transform="scale(0.015625)"/>
      <path id="Arial-BoldMT-65" d="M 2381 1056 
L 3256 909 
Q 3088 428 2723 176 
Q 2359 -75 1813 -75 
Q 947 -75 531 491 
Q 203 944 203 1634 
Q 203 2459 634 2926 
Q 1066 3394 1725 3394 
Q 2466 3394 2894 2905 
Q 3322 2416 3303 1406 
L 1103 1406 
Q 1113 1016 1316 798 
Q 1519 581 1822 581 
Q 2028 581 2168 693 
Q 2309 806 2381 1056 
z
M 2431 1944 
Q 2422 2325 2234 2523 
Q 2047 2722 1778 2722 
Q 1491 2722 1303 2513 
Q 1116 2303 1119 1944 
L 2431 1944 
z
" transform="scale(0.015625)"/>
      <path id="Arial-BoldMT-6e" d="M 3478 0 
L 2600 0 
L 2600 1694 
Q 2600 2231 2544 2389 
Q 2488 2547 2361 2634 
Q 2234 2722 2056 2722 
Q 1828 2722 1647 2597 
Q 1466 2472 1398 2265 
Q 1331 2059 1331 1503 
L 1331 0 
L 453 0 
L 453 3319 
L 1269 3319 
L 1269 2831 
Q 1703 3394 2363 3394 
Q 2653 3394 2893 3289 
Q 3134 3184 3257 3021 
Q 3381 2859 3429 2653 
Q 3478 2447 3478 2063 
L 3478 0 
z
" transform="scale(0.015625)"/>
      <path id="Arial-BoldMT-20" transform="scale(0.015625)"/>
      <path id="Arial-BoldMT-50" d="M 466 0 
L 466 4581 
L 1950 4581 
Q 2794 4581 3050 4513 
Q 3444 4409 3709 4064 
Q 3975 3719 3975 3172 
Q 3975 2750 3822 2462 
Q 3669 2175 3433 2011 
Q 3197 1847 2953 1794 
Q 2622 1728 1994 1728 
L 1391 1728 
L 1391 0 
L 466 0 
z
M 1391 3806 
L 1391 2506 
L 1897 2506 
Q 2444 2506 2628 2578 
Q 2813 2650 2917 2803 
Q 3022 2956 3022 3159 
Q 3022 3409 2875 3571 
Q 2728 3734 2503 3775 
Q 2338 3806 1838 3806 
L 1391 3806 
z
" transform="scale(0.015625)"/>
      <path id="Arial-BoldMT-6c" d="M 459 0 
L 459 4581 
L 1338 4581 
L 1338 0 
L 459 0 
z
" transform="scale(0.015625)"/>
      <path id="Arial-BoldMT-74" d="M 1981 3319 
L 1981 2619 
L 1381 2619 
L 1381 1281 
Q 1381 875 1398 808 
Q 1416 741 1477 697 
Q 1538 653 1625 653 
Q 1747 653 1978 738 
L 2053 56 
Q 1747 -75 1359 -75 
Q 1122 -75 931 4 
Q 741 84 652 211 
Q 563 338 528 553 
Q 500 706 500 1172 
L 500 2619 
L 97 2619 
L 97 3319 
L 500 3319 
L 500 3978 
L 1381 4491 
L 1381 3319 
L 1981 3319 
z
" transform="scale(0.015625)"/>
      <path id="Arial-BoldMT-75" d="M 2644 0 
L 2644 497 
Q 2463 231 2167 78 
Q 1872 -75 1544 -75 
Q 1209 -75 943 72 
Q 678 219 559 484 
Q 441 750 441 1219 
L 441 3319 
L 1319 3319 
L 1319 1794 
Q 1319 1094 1367 936 
Q 1416 778 1544 686 
Q 1672 594 1869 594 
Q 2094 594 2272 717 
Q 2450 841 2515 1023 
Q 2581 1206 2581 1919 
L 2581 3319 
L 3459 3319 
L 3459 0 
L 2644 0 
z
" transform="scale(0.015625)"/>
      <path id="Arial-BoldMT-73" d="M 150 947 
L 1031 1081 
Q 1088 825 1259 692 
Q 1431 559 1741 559 
Q 2081 559 2253 684 
Q 2369 772 2369 919 
Q 2369 1019 2306 1084 
Q 2241 1147 2013 1200 
Q 950 1434 666 1628 
Q 272 1897 272 2375 
Q 272 2806 612 3100 
Q 953 3394 1669 3394 
Q 2350 3394 2681 3172 
Q 3013 2950 3138 2516 
L 2309 2363 
Q 2256 2556 2107 2659 
Q 1959 2763 1684 2763 
Q 1338 2763 1188 2666 
Q 1088 2597 1088 2488 
Q 1088 2394 1175 2328 
Q 1294 2241 1995 2081 
Q 2697 1922 2975 1691 
Q 3250 1456 3250 1038 
Q 3250 581 2869 253 
Q 2488 -75 1741 -75 
Q 1063 -75 667 200 
Q 272 475 150 947 
z
" transform="scale(0.015625)"/>
      <path id="Arial-BoldMT-3a" d="M 628 2441 
L 628 3319 
L 1506 3319 
L 1506 2441 
L 628 2441 
z
M 628 0 
L 628 878 
L 1506 878 
L 1506 0 
L 628 0 
z
" transform="scale(0.015625)"/>
     </defs>
     <use xlink:href="#Arial-BoldMT-42"/>
     <use xlink:href="#Arial-BoldMT-61" x="72.216797"/>
     <use xlink:href="#Arial-BoldMT-72" x="127.832031"/>
     <use xlink:href="#Arial-BoldMT-72" x="166.748047"/>
     <use xlink:href="#Arial-BoldMT-65" x="205.664062"/>
     <use xlink:href="#Arial-BoldMT-6e" x="261.279297"/>
     <use xlink:href="#Arial-BoldMT-20" x="322.363281"/>
     <use xlink:href="#Arial-BoldMT-50" x="350.146484"/>
     <use xlink:href="#Arial-BoldMT-6c" x="416.845703"/>
     <use xlink:href="#Arial-BoldMT-61" x="444.628906"/>
     <use xlink:href="#Arial-BoldMT-74" x="500.244141"/>
     <use xlink:href="#Arial-BoldMT-65" x="533.544922"/>
     <use xlink:href="#Arial-BoldMT-61" x="589.160156"/>
     <use xlink:href="#Arial-BoldMT-75" x="644.775391"/>
     <use xlink:href="#Arial-BoldMT-73" x="705.859375"/>
     <use xlink:href="#Arial-BoldMT-3a" x="761.474609"/>
    </g>
    <!-- Gradients ∼ 2⁻ⁿ -->
    <g style="fill: #d62728" transform="translate(27.6988 76.400335) scale(0.07 -0.07)">
     <defs>
      <path id="Arial-BoldMT-47" d="M 2597 1684 
L 2597 2456 
L 4591 2456 
L 4591 631 
Q 4300 350 3748 136 
Q 3197 -78 2631 -78 
Q 1913 -78 1378 223 
Q 844 525 575 1086 
Q 306 1647 306 2306 
Q 306 3022 606 3578 
Q 906 4134 1484 4431 
Q 1925 4659 2581 4659 
Q 3434 4659 3914 4301 
Q 4394 3944 4531 3313 
L 3613 3141 
Q 3516 3478 3248 3673 
Q 2981 3869 2581 3869 
Q 1975 3869 1617 3484 
Q 1259 3100 1259 2344 
Q 1259 1528 1621 1120 
Q 1984 713 2572 713 
Q 2863 713 3155 827 
Q 3447 941 3656 1103 
L 3656 1684 
L 2597 1684 
z
" transform="scale(0.015625)"/>
      <path id="Arial-BoldMT-64" d="M 3503 0 
L 2688 0 
L 2688 488 
Q 2484 203 2207 64 
Q 1931 -75 1650 -75 
Q 1078 -75 670 386 
Q 263 847 263 1672 
Q 263 2516 659 2955 
Q 1056 3394 1663 3394 
Q 2219 3394 2625 2931 
L 2625 4581 
L 3503 4581 
L 3503 0 
z
M 1159 1731 
Q 1159 1200 1306 963 
Q 1519 619 1900 619 
Q 2203 619 2415 876 
Q 2628 1134 2628 1647 
Q 2628 2219 2422 2470 
Q 2216 2722 1894 2722 
Q 1581 2722 1370 2473 
Q 1159 2225 1159 1731 
z
" transform="scale(0.015625)"/>
      <path id="Arial-BoldMT-69" d="M 459 3769 
L 459 4581 
L 1338 4581 
L 1338 3769 
L 459 3769 
z
M 459 0 
L 459 3319 
L 1338 3319 
L 1338 0 
L 459 0 
z
" transform="scale(0.015625)"/>
      <path id="Arial-BoldMT-223c" d="M 800 0 
L 800 4000 
L 4000 4000 
L 4000 0 
L 800 0 
z
M 900 100 
L 3900 100 
L 3900 3900 
L 900 3900 
L 900 100 
z
" transform="scale(0.015625)"/>
      <path id="Arial-BoldMT-32" d="M 3238 816 
L 3238 0 
L 159 0 
Q 209 463 459 877 
Q 709 1291 1447 1975 
Q 2041 2528 2175 2725 
Q 2356 2997 2356 3263 
Q 2356 3556 2198 3714 
Q 2041 3872 1763 3872 
Q 1488 3872 1325 3706 
Q 1163 3541 1138 3156 
L 263 3244 
Q 341 3969 753 4284 
Q 1166 4600 1784 4600 
Q 2463 4600 2850 4234 
Q 3238 3869 3238 3325 
Q 3238 3016 3127 2736 
Q 3016 2456 2775 2150 
Q 2616 1947 2200 1565 
Q 1784 1184 1673 1059 
Q 1563 934 1494 816 
L 3238 816 
z
" transform="scale(0.015625)"/>
      <path id="Arial-BoldMT-207b" d="M 800 0 
L 800 4000 
L 4000 4000 
L 4000 0 
L 800 0 
z
M 900 100 
L 3900 100 
L 3900 3900 
L 900 3900 
L 900 100 
z
" transform="scale(0.015625)"/>
      <path id="Arial-BoldMT-207f" d="M 2288 1622 
L 1641 1622 
L 1641 2681 
Q 1641 2988 1611 3072 
Q 1581 3156 1509 3204 
Q 1438 3253 1328 3253 
Q 1084 3253 969 3081 
Q 894 2966 894 2566 
L 894 1622 
L 247 1622 
L 247 3700 
L 853 3700 
L 853 3466 
L 906 3516 
Q 1009 3613 1173 3678 
Q 1338 3744 1519 3744 
Q 1772 3744 1953 3647 
Q 2134 3550 2211 3384 
Q 2288 3219 2288 2903 
L 2288 1622 
z
" transform="scale(0.015625)"/>
     </defs>
     <use xlink:href="#Arial-BoldMT-47"/>
     <use xlink:href="#Arial-BoldMT-72" x="77.783203"/>
     <use xlink:href="#Arial-BoldMT-61" x="116.699219"/>
     <use xlink:href="#Arial-BoldMT-64" x="172.314453"/>
     <use xlink:href="#Arial-BoldMT-69" x="233.398438"/>
     <use xlink:href="#Arial-BoldMT-65" x="261.181641"/>
     <use xlink:href="#Arial-BoldMT-6e" x="316.796875"/>
     <use xlink:href="#Arial-BoldMT-74" x="377.880859"/>
     <use xlink:href="#Arial-BoldMT-73" x="411.181641"/>
     <use xlink:href="#Arial-BoldMT-20" x="466.796875"/>
     <use xlink:href="#Arial-BoldMT-223c" x="494.580078"/>
     <use xlink:href="#Arial-BoldMT-20" x="569.580078"/>
     <use xlink:href="#Arial-BoldMT-32" x="597.363281"/>
     <use xlink:href="#Arial-BoldMT-207b" x="652.978516"/>
     <use xlink:href="#Arial-BoldMT-207f" x="727.978516"/>
    </g>
   </g>
   <g id="text_2">
    <!-- Compilation Overhead: -->
    <g style="fill: #d62728" transform="translate(16.059659 125.123038) scale(0.07 -0.07)">
     <defs>
      <path id="Arial-BoldMT-43" d="M 3397 1684 
L 4294 1400 
Q 4088 650 3608 286 
Q 3128 -78 2391 -78 
Q 1478 -78 890 545 
Q 303 1169 303 2250 
Q 303 3394 893 4026 
Q 1484 4659 2447 4659 
Q 3288 4659 3813 4163 
Q 4125 3869 4281 3319 
L 3366 3100 
Q 3284 3456 3026 3662 
Q 2769 3869 2400 3869 
Q 1891 3869 1573 3503 
Q 1256 3138 1256 2319 
Q 1256 1450 1568 1081 
Q 1881 713 2381 713 
Q 2750 713 3015 947 
Q 3281 1181 3397 1684 
z
" transform="scale(0.015625)"/>
      <path id="Arial-BoldMT-6f" d="M 256 1706 
Q 256 2144 472 2553 
Q 688 2963 1083 3178 
Q 1478 3394 1966 3394 
Q 2719 3394 3200 2905 
Q 3681 2416 3681 1669 
Q 3681 916 3195 420 
Q 2709 -75 1972 -75 
Q 1516 -75 1102 131 
Q 688 338 472 736 
Q 256 1134 256 1706 
z
M 1156 1659 
Q 1156 1166 1390 903 
Q 1625 641 1969 641 
Q 2313 641 2545 903 
Q 2778 1166 2778 1666 
Q 2778 2153 2545 2415 
Q 2313 2678 1969 2678 
Q 1625 2678 1390 2415 
Q 1156 2153 1156 1659 
z
" transform="scale(0.015625)"/>
      <path id="Arial-BoldMT-6d" d="M 394 3319 
L 1203 3319 
L 1203 2866 
Q 1638 3394 2238 3394 
Q 2556 3394 2790 3262 
Q 3025 3131 3175 2866 
Q 3394 3131 3647 3262 
Q 3900 3394 4188 3394 
Q 4553 3394 4806 3245 
Q 5059 3097 5184 2809 
Q 5275 2597 5275 2122 
L 5275 0 
L 4397 0 
L 4397 1897 
Q 4397 2391 4306 2534 
Q 4184 2722 3931 2722 
Q 3747 2722 3584 2609 
Q 3422 2497 3350 2280 
Q 3278 2063 3278 1594 
L 3278 0 
L 2400 0 
L 2400 1819 
Q 2400 2303 2353 2443 
Q 2306 2584 2207 2653 
Q 2109 2722 1941 2722 
Q 1738 2722 1575 2612 
Q 1413 2503 1342 2297 
Q 1272 2091 1272 1613 
L 1272 0 
L 394 0 
L 394 3319 
z
" transform="scale(0.015625)"/>
      <path id="Arial-BoldMT-70" d="M 434 3319 
L 1253 3319 
L 1253 2831 
Q 1413 3081 1684 3237 
Q 1956 3394 2288 3394 
Q 2866 3394 3269 2941 
Q 3672 2488 3672 1678 
Q 3672 847 3265 386 
Q 2859 -75 2281 -75 
Q 2006 -75 1782 34 
Q 1559 144 1313 409 
L 1313 -1263 
L 434 -1263 
L 434 3319 
z
M 1303 1716 
Q 1303 1156 1525 889 
Q 1747 622 2066 622 
Q 2372 622 2575 867 
Q 2778 1113 2778 1672 
Q 2778 2194 2568 2447 
Q 2359 2700 2050 2700 
Q 1728 2700 1515 2451 
Q 1303 2203 1303 1716 
z
" transform="scale(0.015625)"/>
      <path id="Arial-BoldMT-4f" d="M 278 2263 
Q 278 2963 488 3438 
Q 644 3788 914 4066 
Q 1184 4344 1506 4478 
Q 1934 4659 2494 4659 
Q 3506 4659 4114 4031 
Q 4722 3403 4722 2284 
Q 4722 1175 4119 548 
Q 3516 -78 2506 -78 
Q 1484 -78 881 545 
Q 278 1169 278 2263 
z
M 1231 2294 
Q 1231 1516 1590 1114 
Q 1950 713 2503 713 
Q 3056 713 3411 1111 
Q 3766 1509 3766 2306 
Q 3766 3094 3420 3481 
Q 3075 3869 2503 3869 
Q 1931 3869 1581 3476 
Q 1231 3084 1231 2294 
z
" transform="scale(0.015625)"/>
      <path id="Arial-BoldMT-76" d="M 1372 0 
L 34 3319 
L 956 3319 
L 1581 1625 
L 1763 1059 
Q 1834 1275 1853 1344 
Q 1897 1484 1947 1625 
L 2578 3319 
L 3481 3319 
L 2163 0 
L 1372 0 
z
" transform="scale(0.015625)"/>
      <path id="Arial-BoldMT-68" d="M 1334 4581 
L 1334 2897 
Q 1759 3394 2350 3394 
Q 2653 3394 2897 3281 
Q 3141 3169 3264 2994 
Q 3388 2819 3433 2606 
Q 3478 2394 3478 1947 
L 3478 0 
L 2600 0 
L 2600 1753 
Q 2600 2275 2550 2415 
Q 2500 2556 2373 2639 
Q 2247 2722 2056 2722 
Q 1838 2722 1666 2615 
Q 1494 2509 1414 2295 
Q 1334 2081 1334 1663 
L 1334 0 
L 456 0 
L 456 4581 
L 1334 4581 
z
" transform="scale(0.015625)"/>
     </defs>
     <use xlink:href="#Arial-BoldMT-43"/>
     <use xlink:href="#Arial-BoldMT-6f" x="72.216797"/>
     <use xlink:href="#Arial-BoldMT-6d" x="133.300781"/>
     <use xlink:href="#Arial-BoldMT-70" x="222.216797"/>
     <use xlink:href="#Arial-BoldMT-69" x="283.300781"/>
     <use xlink:href="#Arial-BoldMT-6c" x="311.083984"/>
     <use xlink:href="#Arial-BoldMT-61" x="338.867188"/>
     <use xlink:href="#Arial-BoldMT-74" x="394.482422"/>
     <use xlink:href="#Arial-BoldMT-69" x="427.783203"/>
     <use xlink:href="#Arial-BoldMT-6f" x="455.566406"/>
     <use xlink:href="#Arial-BoldMT-6e" x="516.650391"/>
     <use xlink:href="#Arial-BoldMT-20" x="577.734375"/>
     <use xlink:href="#Arial-BoldMT-4f" x="605.517578"/>
     <use xlink:href="#Arial-BoldMT-76" x="683.300781"/>
     <use xlink:href="#Arial-BoldMT-65" x="738.916016"/>
     <use xlink:href="#Arial-BoldMT-72" x="794.53125"/>
     <use xlink:href="#Arial-BoldMT-68" x="833.447266"/>
     <use xlink:href="#Arial-BoldMT-65" x="894.53125"/>
     <use xlink:href="#Arial-BoldMT-61" x="950.146484"/>
     <use xlink:href="#Arial-BoldMT-64" x="1005.761719"/>
     <use xlink:href="#Arial-BoldMT-3a" x="1066.845703"/>
    </g>
    <!-- Gates ∼ 4ⁿ -->
    <g style="fill: #d62728" transform="translate(36.933878 132.517007) scale(0.07 -0.07)">
     <defs>
      <path id="Arial-BoldMT-34" d="M 1994 0 
L 1994 922 
L 119 922 
L 119 1691 
L 2106 4600 
L 2844 4600 
L 2844 1694 
L 3413 1694 
L 3413 922 
L 2844 922 
L 2844 0 
L 1994 0 
z
M 1994 1694 
L 1994 3259 
L 941 1694 
L 1994 1694 
z
" transform="scale(0.015625)"/>
     </defs>
     <use xlink:href="#Arial-BoldMT-47"/>
     <use xlink:href="#Arial-BoldMT-61" x="77.783203"/>
     <use xlink:href="#Arial-BoldMT-74" x="133.398438"/>
     <use xlink:href="#Arial-BoldMT-65" x="166.699219"/>
     <use xlink:href="#Arial-BoldMT-73" x="222.314453"/>
     <use xlink:href="#Arial-BoldMT-20" x="277.929688"/>
     <use xlink:href="#Arial-BoldMT-223c" x="305.712891"/>
     <use xlink:href="#Arial-BoldMT-20" x="380.712891"/>
     <use xlink:href="#Arial-BoldMT-34" x="408.496094"/>
     <use xlink:href="#Arial-BoldMT-207f" x="464.111328"/>
    </g>
   </g>
   <g id="text_3">
    <!-- QEC Data Scarcity: -->
    <g style="fill: #d62728" transform="translate(22.662081 181.099929) scale(0.07 -0.07)">
     <defs>
      <path id="Arial-BoldMT-51" d="M 4153 581 
Q 4494 338 4894 194 
L 4553 -459 
Q 4344 -397 4144 -288 
Q 4100 -266 3528 119 
Q 3078 -78 2531 -78 
Q 1475 -78 876 544 
Q 278 1166 278 2291 
Q 278 3413 878 4036 
Q 1478 4659 2506 4659 
Q 3525 4659 4122 4036 
Q 4719 3413 4719 2291 
Q 4719 1697 4553 1247 
Q 4428 903 4153 581 
z
M 3409 1103 
Q 3588 1313 3677 1609 
Q 3766 1906 3766 2291 
Q 3766 3084 3416 3476 
Q 3066 3869 2500 3869 
Q 1934 3869 1582 3475 
Q 1231 3081 1231 2291 
Q 1231 1488 1582 1089 
Q 1934 691 2472 691 
Q 2672 691 2850 756 
Q 2569 941 2278 1044 
L 2538 1572 
Q 2994 1416 3409 1103 
z
" transform="scale(0.015625)"/>
      <path id="Arial-BoldMT-45" d="M 466 0 
L 466 4581 
L 3863 4581 
L 3863 3806 
L 1391 3806 
L 1391 2791 
L 3691 2791 
L 3691 2019 
L 1391 2019 
L 1391 772 
L 3950 772 
L 3950 0 
L 466 0 
z
" transform="scale(0.015625)"/>
      <path id="Arial-BoldMT-44" d="M 463 4581 
L 2153 4581 
Q 2725 4581 3025 4494 
Q 3428 4375 3715 4072 
Q 4003 3769 4153 3330 
Q 4303 2891 4303 2247 
Q 4303 1681 4163 1272 
Q 3991 772 3672 463 
Q 3431 228 3022 97 
Q 2716 0 2203 0 
L 463 0 
L 463 4581 
z
M 1388 3806 
L 1388 772 
L 2078 772 
Q 2466 772 2638 816 
Q 2863 872 3011 1006 
Q 3159 1141 3253 1448 
Q 3347 1756 3347 2288 
Q 3347 2819 3253 3103 
Q 3159 3388 2990 3547 
Q 2822 3706 2563 3763 
Q 2369 3806 1803 3806 
L 1388 3806 
z
" transform="scale(0.015625)"/>
      <path id="Arial-BoldMT-53" d="M 231 1491 
L 1131 1578 
Q 1213 1125 1461 912 
Q 1709 700 2131 700 
Q 2578 700 2804 889 
Q 3031 1078 3031 1331 
Q 3031 1494 2936 1608 
Q 2841 1722 2603 1806 
Q 2441 1863 1863 2006 
Q 1119 2191 819 2459 
Q 397 2838 397 3381 
Q 397 3731 595 4036 
Q 794 4341 1167 4500 
Q 1541 4659 2069 4659 
Q 2931 4659 3367 4281 
Q 3803 3903 3825 3272 
L 2900 3231 
Q 2841 3584 2645 3739 
Q 2450 3894 2059 3894 
Q 1656 3894 1428 3728 
Q 1281 3622 1281 3444 
Q 1281 3281 1419 3166 
Q 1594 3019 2269 2859 
Q 2944 2700 3267 2529 
Q 3591 2359 3773 2064 
Q 3956 1769 3956 1334 
Q 3956 941 3737 597 
Q 3519 253 3119 86 
Q 2719 -81 2122 -81 
Q 1253 -81 787 320 
Q 322 722 231 1491 
z
" transform="scale(0.015625)"/>
      <path id="Arial-BoldMT-63" d="M 3353 2338 
L 2488 2181 
Q 2444 2441 2289 2572 
Q 2134 2703 1888 2703 
Q 1559 2703 1364 2476 
Q 1169 2250 1169 1719 
Q 1169 1128 1367 884 
Q 1566 641 1900 641 
Q 2150 641 2309 783 
Q 2469 925 2534 1272 
L 3397 1125 
Q 3263 531 2881 228 
Q 2500 -75 1859 -75 
Q 1131 -75 698 384 
Q 266 844 266 1656 
Q 266 2478 700 2936 
Q 1134 3394 1875 3394 
Q 2481 3394 2839 3133 
Q 3197 2872 3353 2338 
z
" transform="scale(0.015625)"/>
      <path id="Arial-BoldMT-79" d="M 44 3319 
L 978 3319 
L 1772 963 
L 2547 3319 
L 3456 3319 
L 2284 125 
L 2075 -453 
Q 1959 -744 1854 -897 
Q 1750 -1050 1614 -1145 
Q 1478 -1241 1279 -1294 
Q 1081 -1347 831 -1347 
Q 578 -1347 334 -1294 
L 256 -606 
Q 463 -647 628 -647 
Q 934 -647 1081 -467 
Q 1228 -288 1306 -9 
L 44 3319 
z
" transform="scale(0.015625)"/>
     </defs>
     <use xlink:href="#Arial-BoldMT-51"/>
     <use xlink:href="#Arial-BoldMT-45" x="77.783203"/>
     <use xlink:href="#Arial-BoldMT-43" x="144.482422"/>
     <use xlink:href="#Arial-BoldMT-20" x="216.699219"/>
     <use xlink:href="#Arial-BoldMT-44" x="244.482422"/>
     <use xlink:href="#Arial-BoldMT-61" x="316.699219"/>
     <use xlink:href="#Arial-BoldMT-74" x="372.314453"/>
     <use xlink:href="#Arial-BoldMT-61" x="405.615234"/>
     <use xlink:href="#Arial-BoldMT-20" x="461.230469"/>
     <use xlink:href="#Arial-BoldMT-53" x="489.013672"/>
     <use xlink:href="#Arial-BoldMT-63" x="555.712891"/>
     <use xlink:href="#Arial-BoldMT-61" x="611.328125"/>
     <use xlink:href="#Arial-BoldMT-72" x="666.943359"/>
     <use xlink:href="#Arial-BoldMT-63" x="705.859375"/>
     <use xlink:href="#Arial-BoldMT-69" x="761.474609"/>
     <use xlink:href="#Arial-BoldMT-74" x="789.257812"/>
     <use xlink:href="#Arial-BoldMT-79" x="822.558594"/>
     <use xlink:href="#Arial-BoldMT-3a" x="878.173828"/>
    </g>
    <!-- Samples ≪ 10⁵ -->
    <g style="fill: #d62728" transform="translate(29.079112 188.688147) scale(0.07 -0.07)">
     <defs>
      <path id="Arial-BoldMT-226a" d="M 800 0 
L 800 4000 
L 4000 4000 
L 4000 0 
L 800 0 
z
M 900 100 
L 3900 100 
L 3900 3900 
L 900 3900 
L 900 100 
z
" transform="scale(0.015625)"/>
      <path id="Arial-BoldMT-31" d="M 2519 0 
L 1641 0 
L 1641 3309 
Q 1159 2859 506 2644 
L 506 3441 
Q 850 3553 1253 3867 
Q 1656 4181 1806 4600 
L 2519 4600 
L 2519 0 
z
" transform="scale(0.015625)"/>
      <path id="Arial-BoldMT-30" d="M 1756 4600 
Q 2422 4600 2797 4125 
Q 3244 3563 3244 2259 
Q 3244 959 2794 391 
Q 2422 -78 1756 -78 
Q 1088 -78 678 436 
Q 269 950 269 2269 
Q 269 3563 719 4131 
Q 1091 4600 1756 4600 
z
M 1756 3872 
Q 1597 3872 1472 3770 
Q 1347 3669 1278 3406 
Q 1188 3066 1188 2259 
Q 1188 1453 1269 1151 
Q 1350 850 1473 750 
Q 1597 650 1756 650 
Q 1916 650 2041 751 
Q 2166 853 2234 1116 
Q 2325 1453 2325 2259 
Q 2325 3066 2244 3367 
Q 2163 3669 2039 3770 
Q 1916 3872 1756 3872 
z
" transform="scale(0.015625)"/>
      <path id="Arial-BoldMT-2075" d="M 800 0 
L 800 4000 
L 4000 4000 
L 4000 0 
L 800 0 
z
M 900 100 
L 3900 100 
L 3900 3900 
L 900 3900 
L 900 100 
z
" transform="scale(0.015625)"/>
     </defs>
     <use xlink:href="#Arial-BoldMT-53"/>
     <use xlink:href="#Arial-BoldMT-61" x="66.699219"/>
     <use xlink:href="#Arial-BoldMT-6d" x="122.314453"/>
     <use xlink:href="#Arial-BoldMT-70" x="211.230469"/>
     <use xlink:href="#Arial-BoldMT-6c" x="272.314453"/>
     <use xlink:href="#Arial-BoldMT-65" x="300.097656"/>
     <use xlink:href="#Arial-BoldMT-73" x="355.712891"/>
     <use xlink:href="#Arial-BoldMT-20" x="411.328125"/>
     <use xlink:href="#Arial-BoldMT-226a" x="439.111328"/>
     <use xlink:href="#Arial-BoldMT-20" x="514.111328"/>
     <use xlink:href="#Arial-BoldMT-31" x="541.894531"/>
     <use xlink:href="#Arial-BoldMT-30" x="597.509766"/>
     <use xlink:href="#Arial-BoldMT-2075" x="653.125"/>
    </g>
   </g>
   <g id="text_4">
    <!-- Noise-Aware -->
    <g style="fill: #2ca02c" transform="translate(101.372799 69.006366) scale(0.07 -0.07)">
     <defs>
      <path id="Arial-BoldMT-4e" d="M 475 0 
L 475 4581 
L 1375 4581 
L 3250 1522 
L 3250 4581 
L 4109 4581 
L 4109 0 
L 3181 0 
L 1334 2988 
L 1334 0 
L 475 0 
z
" transform="scale(0.015625)"/>
      <path id="Arial-BoldMT-2d" d="M 359 1222 
L 359 2100 
L 2084 2100 
L 2084 1222 
L 359 1222 
z
" transform="scale(0.015625)"/>
      <path id="Arial-BoldMT-41" d="M 4597 0 
L 3591 0 
L 3191 1041 
L 1359 1041 
L 981 0 
L 0 0 
L 1784 4581 
L 2763 4581 
L 4597 0 
z
M 2894 1813 
L 2263 3513 
L 1644 1813 
L 2894 1813 
z
" transform="scale(0.015625)"/>
      <path id="Arial-BoldMT-77" d="M 1078 0 
L 28 3319 
L 881 3319 
L 1503 1144 
L 2075 3319 
L 2922 3319 
L 3475 1144 
L 4109 3319 
L 4975 3319 
L 3909 0 
L 3066 0 
L 2494 2134 
L 1931 0 
L 1078 0 
z
" transform="scale(0.015625)"/>
     </defs>
     <use xlink:href="#Arial-BoldMT-4e"/>
     <use xlink:href="#Arial-BoldMT-6f" x="72.216797"/>
     <use xlink:href="#Arial-BoldMT-69" x="133.300781"/>
     <use xlink:href="#Arial-BoldMT-73" x="161.083984"/>
     <use xlink:href="#Arial-BoldMT-65" x="216.699219"/>
     <use xlink:href="#Arial-BoldMT-2d" x="272.314453"/>
     <use xlink:href="#Arial-BoldMT-41" x="305.615234"/>
     <use xlink:href="#Arial-BoldMT-77" x="376.082031"/>
     <use xlink:href="#Arial-BoldMT-61" x="453.865234"/>
     <use xlink:href="#Arial-BoldMT-72" x="509.480469"/>
     <use xlink:href="#Arial-BoldMT-65" x="548.396484"/>
    </g>
    <!-- Initialization -->
    <g style="fill: #2ca02c" transform="translate(102.291549 76.400335) scale(0.07 -0.07)">
     <defs>
      <path id="Arial-BoldMT-49" d="M 438 0 
L 438 4581 
L 1363 4581 
L 1363 0 
L 438 0 
z
" transform="scale(0.015625)"/>
      <path id="Arial-BoldMT-7a" d="M 106 0 
L 106 684 
L 1350 2113 
Q 1656 2463 1803 2609 
Q 1650 2600 1400 2597 
L 228 2591 
L 228 3319 
L 2972 3319 
L 2972 2697 
L 1703 1234 
L 1256 750 
Q 1622 772 1709 772 
L 3069 772 
L 3069 0 
L 106 0 
z
" transform="scale(0.015625)"/>
     </defs>
     <use xlink:href="#Arial-BoldMT-49"/>
     <use xlink:href="#Arial-BoldMT-6e" x="27.783203"/>
     <use xlink:href="#Arial-BoldMT-69" x="88.867188"/>
     <use xlink:href="#Arial-BoldMT-74" x="116.650391"/>
     <use xlink:href="#Arial-BoldMT-69" x="149.951172"/>
     <use xlink:href="#Arial-BoldMT-61" x="177.734375"/>
     <use xlink:href="#Arial-BoldMT-6c" x="233.349609"/>
     <use xlink:href="#Arial-BoldMT-69" x="261.132812"/>
     <use xlink:href="#Arial-BoldMT-7a" x="288.916016"/>
     <use xlink:href="#Arial-BoldMT-61" x="338.916016"/>
     <use xlink:href="#Arial-BoldMT-74" x="394.53125"/>
     <use xlink:href="#Arial-BoldMT-69" x="427.832031"/>
     <use xlink:href="#Arial-BoldMT-6f" x="455.615234"/>
     <use xlink:href="#Arial-BoldMT-6e" x="516.699219"/>
    </g>
   </g>
   <g id="text_5">
    <!-- Hardware-Optimized -->
    <g style="fill: #2ca02c" transform="translate(88.479127 125.07185) scale(0.07 -0.07)">
     <defs>
      <path id="Arial-BoldMT-48" d="M 469 0 
L 469 4581 
L 1394 4581 
L 1394 2778 
L 3206 2778 
L 3206 4581 
L 4131 4581 
L 4131 0 
L 3206 0 
L 3206 2003 
L 1394 2003 
L 1394 0 
L 469 0 
z
" transform="scale(0.015625)"/>
     </defs>
     <use xlink:href="#Arial-BoldMT-48"/>
     <use xlink:href="#Arial-BoldMT-61" x="72.216797"/>
     <use xlink:href="#Arial-BoldMT-72" x="127.832031"/>
     <use xlink:href="#Arial-BoldMT-64" x="166.748047"/>
     <use xlink:href="#Arial-BoldMT-77" x="227.832031"/>
     <use xlink:href="#Arial-BoldMT-61" x="305.615234"/>
     <use xlink:href="#Arial-BoldMT-72" x="361.230469"/>
     <use xlink:href="#Arial-BoldMT-65" x="400.146484"/>
     <use xlink:href="#Arial-BoldMT-2d" x="455.761719"/>
     <use xlink:href="#Arial-BoldMT-4f" x="489.0625"/>
     <use xlink:href="#Arial-BoldMT-70" x="566.845703"/>
     <use xlink:href="#Arial-BoldMT-74" x="627.929688"/>
     <use xlink:href="#Arial-BoldMT-69" x="661.230469"/>
     <use xlink:href="#Arial-BoldMT-6d" x="689.013672"/>
     <use xlink:href="#Arial-BoldMT-69" x="777.929688"/>
     <use xlink:href="#Arial-BoldMT-7a" x="805.712891"/>
     <use xlink:href="#Arial-BoldMT-65" x="855.712891"/>
     <use xlink:href="#Arial-BoldMT-64" x="911.328125"/>
    </g>
    <!-- Compilation -->
    <g style="fill: #2ca02c" transform="translate(102.292643 132.568194) scale(0.07 -0.07)">
     <use xlink:href="#Arial-BoldMT-43"/>
     <use xlink:href="#Arial-BoldMT-6f" x="72.216797"/>
     <use xlink:href="#Arial-BoldMT-6d" x="133.300781"/>
     <use xlink:href="#Arial-BoldMT-70" x="222.216797"/>
     <use xlink:href="#Arial-BoldMT-69" x="283.300781"/>
     <use xlink:href="#Arial-BoldMT-6c" x="311.083984"/>
     <use xlink:href="#Arial-BoldMT-61" x="338.867188"/>
     <use xlink:href="#Arial-BoldMT-74" x="394.482422"/>
     <use xlink:href="#Arial-BoldMT-69" x="427.783203"/>
     <use xlink:href="#Arial-BoldMT-6f" x="455.566406"/>
     <use xlink:href="#Arial-BoldMT-6e" x="516.650391"/>
    </g>
   </g>
   <g id="text_6">
    <!-- Physics-Informed -->
    <g style="fill: #2ca02c" transform="translate(93.145064 181.053991) scale(0.07 -0.07)">
     <defs>
      <path id="Arial-BoldMT-66" d="M 75 3319 
L 563 3319 
L 563 3569 
Q 563 3988 652 4194 
Q 741 4400 980 4529 
Q 1219 4659 1584 4659 
Q 1959 4659 2319 4547 
L 2200 3934 
Q 1991 3984 1797 3984 
Q 1606 3984 1523 3895 
Q 1441 3806 1441 3553 
L 1441 3319 
L 2097 3319 
L 2097 2628 
L 1441 2628 
L 1441 0 
L 563 0 
L 563 2628 
L 75 2628 
L 75 3319 
z
" transform="scale(0.015625)"/>
     </defs>
     <use xlink:href="#Arial-BoldMT-50"/>
     <use xlink:href="#Arial-BoldMT-68" x="66.699219"/>
     <use xlink:href="#Arial-BoldMT-79" x="127.783203"/>
     <use xlink:href="#Arial-BoldMT-73" x="183.398438"/>
     <use xlink:href="#Arial-BoldMT-69" x="239.013672"/>
     <use xlink:href="#Arial-BoldMT-63" x="266.796875"/>
     <use xlink:href="#Arial-BoldMT-73" x="322.412109"/>
     <use xlink:href="#Arial-BoldMT-2d" x="378.027344"/>
     <use xlink:href="#Arial-BoldMT-49" x="411.328125"/>
     <use xlink:href="#Arial-BoldMT-6e" x="439.111328"/>
     <use xlink:href="#Arial-BoldMT-66" x="500.195312"/>
     <use xlink:href="#Arial-BoldMT-6f" x="533.496094"/>
     <use xlink:href="#Arial-BoldMT-72" x="594.580078"/>
     <use xlink:href="#Arial-BoldMT-6d" x="633.496094"/>
     <use xlink:href="#Arial-BoldMT-65" x="722.412109"/>
     <use xlink:href="#Arial-BoldMT-64" x="778.027344"/>
    </g>
    <!-- Synthetic Data -->
    <g style="fill: #2ca02c" transform="translate(98.202018 188.64221) scale(0.07 -0.07)">
     <use xlink:href="#Arial-BoldMT-53"/>
     <use xlink:href="#Arial-BoldMT-79" x="66.699219"/>
     <use xlink:href="#Arial-BoldMT-6e" x="122.314453"/>
     <use xlink:href="#Arial-BoldMT-74" x="183.398438"/>
     <use xlink:href="#Arial-BoldMT-68" x="216.699219"/>
     <use xlink:href="#Arial-BoldMT-65" x="277.783203"/>
     <use xlink:href="#Arial-BoldMT-74" x="333.398438"/>
     <use xlink:href="#Arial-BoldMT-69" x="366.699219"/>
     <use xlink:href="#Arial-BoldMT-63" x="394.482422"/>
     <use xlink:href="#Arial-BoldMT-20" x="450.097656"/>
     <use xlink:href="#Arial-BoldMT-44" x="477.880859"/>
     <use xlink:href="#Arial-BoldMT-61" x="550.097656"/>
     <use xlink:href="#Arial-BoldMT-74" x="605.712891"/>
     <use xlink:href="#Arial-BoldMT-61" x="639.013672"/>
    </g>
   </g>
   <g id="text_7">
    <!-- Integrated -->
    <g style="fill: #1f77b4" transform="translate(171.127735 98.051728) scale(0.08 -0.08)">
     <defs>
      <path id="Arial-BoldMT-67" d="M 378 -219 
L 1381 -341 
Q 1406 -516 1497 -581 
Q 1622 -675 1891 -675 
Q 2234 -675 2406 -572 
Q 2522 -503 2581 -350 
Q 2622 -241 2622 53 
L 2622 538 
Q 2228 0 1628 0 
Q 959 0 569 566 
Q 263 1013 263 1678 
Q 263 2513 664 2953 
Q 1066 3394 1663 3394 
Q 2278 3394 2678 2853 
L 2678 3319 
L 3500 3319 
L 3500 341 
Q 3500 -247 3403 -537 
Q 3306 -828 3131 -993 
Q 2956 -1159 2664 -1253 
Q 2372 -1347 1925 -1347 
Q 1081 -1347 728 -1058 
Q 375 -769 375 -325 
Q 375 -281 378 -219 
z
M 1163 1728 
Q 1163 1200 1367 954 
Q 1572 709 1872 709 
Q 2194 709 2416 961 
Q 2638 1213 2638 1706 
Q 2638 2222 2425 2472 
Q 2213 2722 1888 2722 
Q 1572 2722 1367 2476 
Q 1163 2231 1163 1728 
z
" transform="scale(0.015625)"/>
     </defs>
     <use xlink:href="#Arial-BoldMT-49"/>
     <use xlink:href="#Arial-BoldMT-6e" x="27.783203"/>
     <use xlink:href="#Arial-BoldMT-74" x="88.867188"/>
     <use xlink:href="#Arial-BoldMT-65" x="122.167969"/>
     <use xlink:href="#Arial-BoldMT-67" x="177.783203"/>
     <use xlink:href="#Arial-BoldMT-72" x="238.867188"/>
     <use xlink:href="#Arial-BoldMT-61" x="277.783203"/>
     <use xlink:href="#Arial-BoldMT-74" x="333.398438"/>
     <use xlink:href="#Arial-BoldMT-65" x="366.699219"/>
     <use xlink:href="#Arial-BoldMT-64" x="422.314453"/>
    </g>
    <!-- Quantum -->
    <g style="fill: #1f77b4" transform="translate(172.90836 106.606978) scale(0.08 -0.08)">
     <use xlink:href="#Arial-BoldMT-51"/>
     <use xlink:href="#Arial-BoldMT-75" x="77.783203"/>
     <use xlink:href="#Arial-BoldMT-61" x="138.867188"/>
     <use xlink:href="#Arial-BoldMT-6e" x="194.482422"/>
     <use xlink:href="#Arial-BoldMT-74" x="255.566406"/>
     <use xlink:href="#Arial-BoldMT-75" x="288.867188"/>
     <use xlink:href="#Arial-BoldMT-6d" x="349.951172"/>
    </g>
    <!-- Algorithm -->
    <g style="fill: #1f77b4" transform="translate(171.57586 115.057228) scale(0.08 -0.08)">
     <use xlink:href="#Arial-BoldMT-41"/>
     <use xlink:href="#Arial-BoldMT-6c" x="72.216797"/>
     <use xlink:href="#Arial-BoldMT-67" x="100"/>
     <use xlink:href="#Arial-BoldMT-6f" x="161.083984"/>
     <use xlink:href="#Arial-BoldMT-72" x="222.167969"/>
     <use xlink:href="#Arial-BoldMT-69" x="261.083984"/>
     <use xlink:href="#Arial-BoldMT-74" x="288.867188"/>
     <use xlink:href="#Arial-BoldMT-68" x="322.167969"/>
     <use xlink:href="#Arial-BoldMT-6d" x="383.251953"/>
    </g>
   </g>
   <g id="text_8">
    <!-- 40–50× -->
    <g style="fill: #1f77b4" transform="translate(178.686251 136.295185) scale(0.07 -0.07)">
     <defs>
      <path id="Arial-BoldMT-2013" d="M -13 1331 
L -13 1988 
L 3547 1988 
L 3547 1331 
L -13 1331 
z
" transform="scale(0.015625)"/>
      <path id="Arial-BoldMT-35" d="M 284 1178 
L 1159 1269 
Q 1197 972 1381 798 
Q 1566 625 1806 625 
Q 2081 625 2272 848 
Q 2463 1072 2463 1522 
Q 2463 1944 2273 2155 
Q 2084 2366 1781 2366 
Q 1403 2366 1103 2031 
L 391 2134 
L 841 4519 
L 3163 4519 
L 3163 3697 
L 1506 3697 
L 1369 2919 
Q 1663 3066 1969 3066 
Q 2553 3066 2959 2641 
Q 3366 2216 3366 1538 
Q 3366 972 3038 528 
Q 2591 -78 1797 -78 
Q 1163 -78 763 262 
Q 363 603 284 1178 
z
" transform="scale(0.015625)"/>
      <path id="Arial-BoldMT-d7" d="M 347 1313 
L 1291 2256 
L 341 3203 
L 922 3784 
L 1872 2838 
L 2816 3781 
L 3381 3213 
L 2438 2269 
L 3391 1316 
L 2809 734 
L 1856 1688 
L 913 744 
L 347 1313 
z
" transform="scale(0.015625)"/>
     </defs>
     <use xlink:href="#Arial-BoldMT-34"/>
     <use xlink:href="#Arial-BoldMT-30" x="55.615234"/>
     <use xlink:href="#Arial-BoldMT-2013" x="111.230469"/>
     <use xlink:href="#Arial-BoldMT-35" x="166.845703"/>
     <use xlink:href="#Arial-BoldMT-30" x="222.460938"/>
     <use xlink:href="#Arial-BoldMT-d7" x="278.076172"/>
    </g>
    <!-- Improvement -->
    <g style="fill: #1f77b4" transform="translate(168.485391 143.689153) scale(0.07 -0.07)">
     <use xlink:href="#Arial-BoldMT-49"/>
     <use xlink:href="#Arial-BoldMT-6d" x="27.783203"/>
     <use xlink:href="#Arial-BoldMT-70" x="116.699219"/>
     <use xlink:href="#Arial-BoldMT-72" x="177.783203"/>
     <use xlink:href="#Arial-BoldMT-6f" x="216.699219"/>
     <use xlink:href="#Arial-BoldMT-76" x="277.783203"/>
     <use xlink:href="#Arial-BoldMT-65" x="333.398438"/>
     <use xlink:href="#Arial-BoldMT-6d" x="389.013672"/>
     <use xlink:href="#Arial-BoldMT-65" x="477.929688"/>
     <use xlink:href="#Arial-BoldMT-6e" x="533.544922"/>
     <use xlink:href="#Arial-BoldMT-74" x="594.628906"/>
    </g>
   </g>
   <g id="patch_9">
    <path d="M 87.876515 70.888819 
Q 88.538794 70.888819 88.083039 70.888819 
" style="fill: none; stroke: #7f7f7f; stroke-linecap: round"/>
    <path d="M 84.883039 69.288819 
L 88.083039 70.888819 
L 84.883039 72.488819 
" style="fill: none; stroke: #7f7f7f; stroke-linecap: round"/>
   </g>
   <g id="patch_10">
    <path d="M 87.876515 126.962835 
Q 88.538794 126.962835 88.083039 126.962835 
" style="fill: none; stroke: #7f7f7f; stroke-linecap: round"/>
    <path d="M 84.883039 125.362835 
L 88.083039 126.962835 
L 84.883039 128.562835 
" style="fill: none; stroke: #7f7f7f; stroke-linecap: round"/>
   </g>
   <g id="patch_11">
    <path d="M 87.876515 183.03685 
Q 88.538794 183.03685 88.083039 183.03685 
" style="fill: none; stroke: #7f7f7f; stroke-linecap: round"/>
    <path d="M 84.883039 181.43685 
L 88.083039 183.03685 
L 84.883039 184.63685 
" style="fill: none; stroke: #7f7f7f; stroke-linecap: round"/>
   </g>
   <g id="patch_12">
    <path d="M 155.826373 70.888819 
Q 156.488652 70.888819 156.032897 70.888819 
" style="fill: none; stroke: #7f7f7f; stroke-linecap: round"/>
    <path d="M 152.832897 69.288819 
L 156.032897 70.888819 
L 152.832897 72.488819 
" style="fill: none; stroke: #7f7f7f; stroke-linecap: round"/>
   </g>
   <g id="patch_13">
    <path d="M 155.826373 126.962835 
Q 156.488652 126.962835 156.032897 126.962835 
" style="fill: none; stroke: #7f7f7f; stroke-linecap: round"/>
    <path d="M 152.832897 125.362835 
L 156.032897 126.962835 
L 152.832897 128.562835 
" style="fill: none; stroke: #7f7f7f; stroke-linecap: round"/>
   </g>
   <g id="patch_14">
    <path d="M 155.826373 183.03685 
Q 156.488652 183.03685 156.032897 183.03685 
" style="fill: none; stroke: #7f7f7f; stroke-linecap: round"/>
    <path d="M 152.832897 181.43685 
L 156.032897 183.03685 
L 152.832897 184.63685 
" style="fill: none; stroke: #7f7f7f; stroke-linecap: round"/>
   </g>
   <g id="text_9">
    <!-- AdaptiveQuantum Framework -->
    <g transform="translate(45.727889 17.467928) scale(0.1 -0.1)">
     <defs>
      <path id="Arial-BoldMT-46" d="M 472 0 
L 472 4581 
L 3613 4581 
L 3613 3806 
L 1397 3806 
L 1397 2722 
L 3309 2722 
L 3309 1947 
L 1397 1947 
L 1397 0 
L 472 0 
z
" transform="scale(0.015625)"/>
      <path id="Arial-BoldMT-6b" d="M 428 0 
L 428 4581 
L 1306 4581 
L 1306 2150 
L 2334 3319 
L 3416 3319 
L 2281 2106 
L 3497 0 
L 2550 0 
L 1716 1491 
L 1306 1063 
L 1306 0 
L 428 0 
z
" transform="scale(0.015625)"/>
     </defs>
     <use xlink:href="#Arial-BoldMT-41"/>
     <use xlink:href="#Arial-BoldMT-64" x="72.216797"/>
     <use xlink:href="#Arial-BoldMT-61" x="133.300781"/>
     <use xlink:href="#Arial-BoldMT-70" x="188.916016"/>
     <use xlink:href="#Arial-BoldMT-74" x="250"/>
     <use xlink:href="#Arial-BoldMT-69" x="283.300781"/>
     <use xlink:href="#Arial-BoldMT-76" x="311.083984"/>
     <use xlink:href="#Arial-BoldMT-65" x="366.699219"/>
     <use xlink:href="#Arial-BoldMT-51" x="422.314453"/>
     <use xlink:href="#Arial-BoldMT-75" x="500.097656"/>
     <use xlink:href="#Arial-BoldMT-61" x="561.181641"/>
     <use xlink:href="#Arial-BoldMT-6e" x="616.796875"/>
     <use xlink:href="#Arial-BoldMT-74" x="677.880859"/>
     <use xlink:href="#Arial-BoldMT-75" x="711.181641"/>
     <use xlink:href="#Arial-BoldMT-6d" x="772.265625"/>
     <use xlink:href="#Arial-BoldMT-20" x="861.181641"/>
     <use xlink:href="#Arial-BoldMT-46" x="888.964844"/>
     <use xlink:href="#Arial-BoldMT-72" x="950.048828"/>
     <use xlink:href="#Arial-BoldMT-61" x="988.964844"/>
     <use xlink:href="#Arial-BoldMT-6d" x="1044.580078"/>
     <use xlink:href="#Arial-BoldMT-65" x="1133.496094"/>
     <use xlink:href="#Arial-BoldMT-77" x="1189.111328"/>
     <use xlink:href="#Arial-BoldMT-6f" x="1266.894531"/>
     <use xlink:href="#Arial-BoldMT-72" x="1327.978516"/>
     <use xlink:href="#Arial-BoldMT-6b" x="1366.894531"/>
    </g>
   </g>
   <g id="text_10">
    <!-- ML-Driven Quantum Co-Design -->
    <g transform="translate(60.833514 32.597403) scale(0.08 -0.08)">
     <defs>
      <path id="Arial-ItalicMT-4d" d="M 281 0 
L 1238 4581 
L 1991 4581 
L 2453 1613 
Q 2544 1028 2572 491 
Q 2763 953 3209 1744 
L 4816 4581 
L 5581 4581 
L 4625 0 
L 4022 0 
L 4500 2228 
Q 4666 3000 4975 3959 
Q 4778 3513 4488 2997 
L 2781 0 
L 2191 0 
L 1731 2938 
Q 1669 3341 1641 3878 
Q 1563 3275 1488 2922 
L 878 0 
L 281 0 
z
" transform="scale(0.015625)"/>
      <path id="Arial-ItalicMT-4c" d="M 256 0 
L 1213 4581 
L 1825 4581 
L 978 519 
L 3356 519 
L 3247 0 
L 256 0 
z
" transform="scale(0.015625)"/>
      <path id="Arial-ItalicMT-2d" d="M 297 1375 
L 416 1941 
L 2141 1941 
L 2025 1375 
L 297 1375 
z
" transform="scale(0.015625)"/>
      <path id="Arial-ItalicMT-44" d="M 284 0 
L 1241 4581 
L 2622 4581 
Q 3119 4581 3381 4509 
Q 3756 4413 4022 4164 
Q 4288 3916 4422 3544 
Q 4556 3172 4556 2709 
Q 4556 2156 4389 1701 
Q 4222 1247 3951 901 
Q 3681 556 3386 361 
Q 3091 166 2688 72 
Q 2381 0 1934 0 
L 284 0 
z
M 1006 519 
L 1731 519 
Q 2222 519 2603 609 
Q 2841 666 3009 775 
Q 3231 916 3413 1147 
Q 3650 1453 3792 1845 
Q 3934 2238 3934 2738 
Q 3934 3294 3740 3592 
Q 3547 3891 3247 3988 
Q 3025 4059 2556 4059 
L 1747 4059 
L 1006 519 
z
" transform="scale(0.015625)"/>
      <path id="Arial-ItalicMT-72" d="M 213 0 
L 906 3319 
L 1406 3319 
L 1266 2641 
Q 1522 3025 1767 3209 
Q 2013 3394 2269 3394 
Q 2438 3394 2684 3272 
L 2453 2747 
Q 2306 2853 2131 2853 
Q 1834 2853 1521 2522 
Q 1209 2191 1031 1331 
L 750 0 
L 213 0 
z
" transform="scale(0.015625)"/>
      <path id="Arial-ItalicMT-69" d="M 1016 3941 
L 1150 4581 
L 1713 4581 
L 1578 3941 
L 1016 3941 
z
M 191 0 
L 884 3319 
L 1450 3319 
L 756 0 
L 191 0 
z
" transform="scale(0.015625)"/>
      <path id="Arial-ItalicMT-76" d="M 1050 0 
L 506 3319 
L 1056 3319 
L 1341 1491 
Q 1388 1191 1456 513 
Q 1619 866 1872 1322 
L 2981 3319 
L 3578 3319 
L 1678 0 
L 1050 0 
z
" transform="scale(0.015625)"/>
      <path id="Arial-ItalicMT-65" d="M 2650 1128 
L 3200 1072 
Q 3081 663 2654 294 
Q 2228 -75 1638 -75 
Q 1269 -75 961 95 
Q 653 266 492 591 
Q 331 916 331 1331 
Q 331 1875 582 2386 
Q 834 2897 1234 3145 
Q 1634 3394 2100 3394 
Q 2694 3394 3048 3025 
Q 3403 2656 3403 2019 
Q 3403 1775 3359 1519 
L 916 1519 
Q 903 1422 903 1344 
Q 903 878 1117 633 
Q 1331 388 1641 388 
Q 1931 388 2212 578 
Q 2494 769 2650 1128 
z
M 1006 1950 
L 2869 1950 
Q 2872 2038 2872 2075 
Q 2872 2500 2659 2726 
Q 2447 2953 2113 2953 
Q 1750 2953 1451 2703 
Q 1153 2453 1006 1950 
z
" transform="scale(0.015625)"/>
      <path id="Arial-ItalicMT-6e" d="M 213 0 
L 906 3319 
L 1419 3319 
L 1297 2741 
Q 1631 3081 1922 3237 
Q 2213 3394 2516 3394 
Q 2919 3394 3148 3175 
Q 3378 2956 3378 2591 
Q 3378 2406 3297 2009 
L 2875 0 
L 2309 0 
L 2750 2103 
Q 2816 2409 2816 2556 
Q 2816 2722 2702 2825 
Q 2588 2928 2372 2928 
Q 1938 2928 1598 2615 
Q 1259 2303 1100 1544 
L 778 0 
L 213 0 
z
" transform="scale(0.015625)"/>
      <path id="Arial-ItalicMT-20" transform="scale(0.015625)"/>
      <path id="Arial-ItalicMT-51" d="M 3869 369 
Q 4100 94 4494 -163 
L 4222 -525 
Q 3806 -253 3475 134 
Q 3009 -84 2588 -84 
Q 2250 -84 1847 44 
Q 1444 172 1172 431 
Q 900 691 745 1098 
Q 591 1506 591 2000 
Q 591 2597 819 3144 
Q 1009 3594 1314 3920 
Q 1619 4247 1981 4425 
Q 2459 4659 3016 4659 
Q 3872 4659 4411 4101 
Q 4950 3544 4950 2606 
Q 4950 1916 4662 1333 
Q 4375 750 3869 369 
z
M 3494 763 
Q 3872 1056 4106 1570 
Q 4341 2084 4341 2641 
Q 4341 3334 3959 3742 
Q 3578 4150 3025 4150 
Q 2563 4150 2134 3879 
Q 1706 3609 1450 3087 
Q 1194 2566 1194 1950 
Q 1194 1178 1675 756 
Q 2050 428 2478 428 
Q 2819 428 3091 534 
Q 2806 794 2506 950 
L 2728 1331 
Q 2931 1244 3095 1123 
Q 3259 1003 3494 763 
z
" transform="scale(0.015625)"/>
      <path id="Arial-ItalicMT-75" d="M 2478 600 
Q 1881 -75 1256 -75 
Q 872 -75 636 145 
Q 400 366 400 684 
Q 400 894 506 1403 
L 906 3319 
L 1472 3319 
L 1028 1197 
Q 972 931 972 784 
Q 972 597 1086 492 
Q 1200 388 1422 388 
Q 1659 388 1886 503 
Q 2113 619 2277 816 
Q 2441 1013 2544 1281 
Q 2613 1453 2703 1884 
L 3003 3319 
L 3569 3319 
L 2875 0 
L 2353 0 
L 2478 600 
z
" transform="scale(0.015625)"/>
      <path id="Arial-ItalicMT-61" d="M 2450 413 
Q 2156 159 1884 42 
Q 1613 -75 1303 -75 
Q 844 -75 562 195 
Q 281 466 281 888 
Q 281 1166 407 1380 
Q 534 1594 743 1723 
Q 953 1853 1256 1909 
Q 1447 1947 1980 1969 
Q 2513 1991 2744 2081 
Q 2809 2313 2809 2466 
Q 2809 2663 2666 2775 
Q 2469 2931 2091 2931 
Q 1734 2931 1507 2773 
Q 1281 2616 1178 2325 
L 606 2375 
Q 781 2869 1161 3131 
Q 1541 3394 2119 3394 
Q 2734 3394 3094 3100 
Q 3369 2881 3369 2531 
Q 3369 2266 3291 1916 
L 3106 1091 
Q 3019 697 3019 450 
Q 3019 294 3088 0 
L 2516 0 
Q 2469 163 2450 413 
z
M 2659 1681 
Q 2541 1634 2405 1609 
Q 2269 1584 1950 1556 
Q 1456 1513 1253 1445 
Q 1050 1378 947 1231 
Q 844 1084 844 906 
Q 844 669 1008 516 
Q 1172 363 1475 363 
Q 1756 363 2015 511 
Q 2275 659 2425 925 
Q 2575 1191 2659 1681 
z
" transform="scale(0.015625)"/>
      <path id="Arial-ItalicMT-74" d="M 1534 459 
L 1441 -3 
Q 1238 -56 1047 -56 
Q 709 -56 509 109 
Q 359 234 359 450 
Q 359 559 441 953 
L 844 2881 
L 397 2881 
L 488 3319 
L 934 3319 
L 1106 4134 
L 1753 4525 
L 1500 3319 
L 2056 3319 
L 1963 2881 
L 1409 2881 
L 1025 1047 
Q 953 697 953 628 
Q 953 528 1011 475 
Q 1069 422 1200 422 
Q 1388 422 1534 459 
z
" transform="scale(0.015625)"/>
      <path id="Arial-ItalicMT-6d" d="M 209 0 
L 903 3319 
L 1469 3319 
L 1353 2772 
Q 1669 3125 1917 3259 
Q 2166 3394 2456 3394 
Q 2766 3394 2973 3230 
Q 3181 3066 3247 2772 
Q 3500 3084 3779 3239 
Q 4059 3394 4369 3394 
Q 4784 3394 4992 3197 
Q 5200 3000 5200 2644 
Q 5200 2491 5128 2138 
L 4681 0 
L 4116 0 
L 4572 2194 
Q 4631 2463 4631 2578 
Q 4631 2741 4528 2834 
Q 4425 2928 4238 2928 
Q 3984 2928 3721 2775 
Q 3459 2622 3314 2373 
Q 3169 2125 3059 1609 
L 2722 0 
L 2156 0 
L 2625 2241 
Q 2675 2469 2675 2566 
Q 2675 2728 2573 2828 
Q 2472 2928 2309 2928 
Q 2069 2928 1805 2775 
Q 1541 2622 1375 2348 
Q 1209 2075 1103 1569 
L 775 0 
L 209 0 
z
" transform="scale(0.015625)"/>
      <path id="Arial-ItalicMT-43" d="M 3859 1613 
L 4466 1528 
Q 4178 734 3628 328 
Q 3078 -78 2394 -78 
Q 1559 -78 1070 431 
Q 581 941 581 1891 
Q 581 3128 1325 3938 
Q 1988 4659 2972 4659 
Q 3700 4659 4151 4268 
Q 4603 3878 4675 3219 
L 4103 3166 
Q 4013 3663 3730 3908 
Q 3447 4153 3000 4153 
Q 2159 4153 1641 3406 
Q 1191 2763 1191 1878 
Q 1191 1172 1537 800 
Q 1884 428 2441 428 
Q 2916 428 3300 737 
Q 3684 1047 3859 1613 
z
" transform="scale(0.015625)"/>
      <path id="Arial-ItalicMT-6f" d="M 313 1259 
Q 313 2231 884 2869 
Q 1356 3394 2122 3394 
Q 2722 3394 3089 3019 
Q 3456 2644 3456 2006 
Q 3456 1434 3225 942 
Q 2994 450 2567 187 
Q 2141 -75 1669 -75 
Q 1281 -75 964 90 
Q 647 256 480 559 
Q 313 863 313 1259 
z
M 878 1316 
Q 878 847 1103 605 
Q 1328 363 1675 363 
Q 1856 363 2034 436 
Q 2213 509 2366 659 
Q 2519 809 2626 1001 
Q 2734 1194 2800 1416 
Q 2897 1725 2897 2009 
Q 2897 2459 2670 2707 
Q 2444 2956 2100 2956 
Q 1834 2956 1615 2829 
Q 1397 2703 1220 2459 
Q 1044 2216 961 1892 
Q 878 1569 878 1316 
z
" transform="scale(0.015625)"/>
      <path id="Arial-ItalicMT-73" d="M 266 1134 
L 831 1169 
Q 831 925 906 753 
Q 981 581 1182 472 
Q 1384 363 1653 363 
Q 2028 363 2215 513 
Q 2403 663 2403 866 
Q 2403 1013 2291 1144 
Q 2175 1275 1726 1467 
Q 1278 1659 1153 1738 
Q 944 1866 837 2039 
Q 731 2213 731 2438 
Q 731 2831 1043 3112 
Q 1356 3394 1919 3394 
Q 2544 3394 2870 3105 
Q 3197 2816 3209 2344 
L 2656 2306 
Q 2644 2606 2444 2781 
Q 2244 2956 1878 2956 
Q 1584 2956 1421 2822 
Q 1259 2688 1259 2531 
Q 1259 2375 1400 2256 
Q 1494 2175 1884 2006 
Q 2534 1725 2703 1563 
Q 2972 1303 2972 931 
Q 2972 684 2820 446 
Q 2669 209 2358 67 
Q 2047 -75 1625 -75 
Q 1050 -75 647 209 
Q 244 494 266 1134 
z
" transform="scale(0.015625)"/>
      <path id="Arial-ItalicMT-67" d="M 181 -300 
L 753 -353 
Q 747 -547 800 -644 
Q 853 -741 969 -794 
Q 1122 -863 1366 -863 
Q 1878 -863 2103 -597 
Q 2250 -419 2375 178 
L 2431 447 
Q 1991 0 1494 0 
Q 991 0 652 370 
Q 313 741 313 1419 
Q 313 1978 580 2447 
Q 847 2916 1215 3155 
Q 1584 3394 1975 3394 
Q 2628 3394 2981 2775 
L 3094 3319 
L 3613 3319 
L 2944 116 
Q 2834 -413 2656 -708 
Q 2478 -1003 2161 -1165 
Q 1844 -1328 1428 -1328 
Q 1028 -1328 739 -1225 
Q 450 -1122 308 -923 
Q 166 -725 166 -469 
Q 166 -391 181 -300 
z
M 888 1469 
Q 888 1128 953 956 
Q 1047 716 1220 589 
Q 1394 463 1606 463 
Q 1884 463 2159 658 
Q 2434 853 2604 1262 
Q 2775 1672 2775 2044 
Q 2775 2453 2548 2695 
Q 2322 2938 1988 2938 
Q 1781 2938 1587 2827 
Q 1394 2716 1226 2489 
Q 1059 2263 973 1947 
Q 888 1631 888 1469 
z
" transform="scale(0.015625)"/>
     </defs>
     <use xlink:href="#Arial-ItalicMT-4d"/>
     <use xlink:href="#Arial-ItalicMT-4c" x="83.300781"/>
     <use xlink:href="#Arial-ItalicMT-2d" x="138.916016"/>
     <use xlink:href="#Arial-ItalicMT-44" x="172.216797"/>
     <use xlink:href="#Arial-ItalicMT-72" x="244.433594"/>
     <use xlink:href="#Arial-ItalicMT-69" x="277.734375"/>
     <use xlink:href="#Arial-ItalicMT-76" x="299.951172"/>
     <use xlink:href="#Arial-ItalicMT-65" x="349.951172"/>
     <use xlink:href="#Arial-ItalicMT-6e" x="405.566406"/>
     <use xlink:href="#Arial-ItalicMT-20" x="461.181641"/>
     <use xlink:href="#Arial-ItalicMT-51" x="488.964844"/>
     <use xlink:href="#Arial-ItalicMT-75" x="566.748047"/>
     <use xlink:href="#Arial-ItalicMT-61" x="622.363281"/>
     <use xlink:href="#Arial-ItalicMT-6e" x="677.978516"/>
     <use xlink:href="#Arial-ItalicMT-74" x="733.59375"/>
     <use xlink:href="#Arial-ItalicMT-75" x="761.376953"/>
     <use xlink:href="#Arial-ItalicMT-6d" x="816.992188"/>
     <use xlink:href="#Arial-ItalicMT-20" x="900.292969"/>
     <use xlink:href="#Arial-ItalicMT-43" x="928.076172"/>
     <use xlink:href="#Arial-ItalicMT-6f" x="1000.292969"/>
     <use xlink:href="#Arial-ItalicMT-2d" x="1055.908203"/>
     <use xlink:href="#Arial-ItalicMT-44" x="1089.208984"/>
     <use xlink:href="#Arial-ItalicMT-65" x="1161.425781"/>
     <use xlink:href="#Arial-ItalicMT-73" x="1217.041016"/>
     <use xlink:href="#Arial-ItalicMT-69" x="1267.041016"/>
     <use xlink:href="#Arial-ItalicMT-67" x="1289.257812"/>
     <use xlink:href="#Arial-ItalicMT-6e" x="1344.873047"/>
    </g>
   </g>
   <g id="legend_1">
    <g id="patch_15">
     <path d="M 78.569764 224.583529 
L 155.129764 224.583529 
Q 156.329764 224.583529 156.329764 223.383529 
L 156.329764 198.451654 
Q 156.329764 197.251654 155.129764 197.251654 
L 78.569764 197.251654 
Q 77.369764 197.251654 77.369764 198.451654 
L 77.369764 223.383529 
Q 77.369764 224.583529 78.569764 224.583529 
z
" style="fill: #ffffff; opacity: 0.9; stroke: #cccccc; stroke-linejoin: miter"/>
    </g>
    <g id="patch_16">
     <path d="M 79.769764 203.946341 
L 91.769764 203.946341 
L 91.769764 199.746341 
L 79.769764 199.746341 
z
" style="fill: #d62728; opacity: 0.3"/>
    </g>
    <g id="text_11">
     <!-- Quantum Bottlenecks -->
     <g transform="translate(96.569764 203.946341) scale(0.06 -0.06)">
      <defs>
       <path id="ArialMT-51" d="M 3966 491 
Q 4388 200 4744 66 
L 4566 -356 
Q 4072 -178 3581 206 
Q 3072 -78 2456 -78 
Q 1834 -78 1328 222 
Q 822 522 548 1065 
Q 275 1609 275 2291 
Q 275 2969 550 3525 
Q 825 4081 1333 4372 
Q 1841 4663 2469 4663 
Q 3103 4663 3612 4361 
Q 4122 4059 4389 3517 
Q 4656 2975 4656 2294 
Q 4656 1728 4484 1276 
Q 4313 825 3966 491 
z
M 2631 1266 
Q 3156 1119 3497 828 
Q 4031 1316 4031 2294 
Q 4031 2850 3842 3265 
Q 3653 3681 3289 3911 
Q 2925 4141 2472 4141 
Q 1794 4141 1347 3677 
Q 900 3213 900 2291 
Q 900 1397 1342 919 
Q 1784 441 2472 441 
Q 2797 441 3084 563 
Q 2800 747 2484 825 
L 2631 1266 
z
" transform="scale(0.015625)"/>
       <path id="ArialMT-75" d="M 2597 0 
L 2597 488 
Q 2209 -75 1544 -75 
Q 1250 -75 995 37 
Q 741 150 617 320 
Q 494 491 444 738 
Q 409 903 409 1263 
L 409 3319 
L 972 3319 
L 972 1478 
Q 972 1038 1006 884 
Q 1059 663 1231 536 
Q 1403 409 1656 409 
Q 1909 409 2131 539 
Q 2353 669 2445 892 
Q 2538 1116 2538 1541 
L 2538 3319 
L 3100 3319 
L 3100 0 
L 2597 0 
z
" transform="scale(0.015625)"/>
       <path id="ArialMT-61" d="M 2588 409 
Q 2275 144 1986 34 
Q 1697 -75 1366 -75 
Q 819 -75 525 192 
Q 231 459 231 875 
Q 231 1119 342 1320 
Q 453 1522 633 1644 
Q 813 1766 1038 1828 
Q 1203 1872 1538 1913 
Q 2219 1994 2541 2106 
Q 2544 2222 2544 2253 
Q 2544 2597 2384 2738 
Q 2169 2928 1744 2928 
Q 1347 2928 1158 2789 
Q 969 2650 878 2297 
L 328 2372 
Q 403 2725 575 2942 
Q 747 3159 1072 3276 
Q 1397 3394 1825 3394 
Q 2250 3394 2515 3294 
Q 2781 3194 2906 3042 
Q 3031 2891 3081 2659 
Q 3109 2516 3109 2141 
L 3109 1391 
Q 3109 606 3145 398 
Q 3181 191 3288 0 
L 2700 0 
Q 2613 175 2588 409 
z
M 2541 1666 
Q 2234 1541 1622 1453 
Q 1275 1403 1131 1340 
Q 988 1278 909 1158 
Q 831 1038 831 891 
Q 831 666 1001 516 
Q 1172 366 1500 366 
Q 1825 366 2078 508 
Q 2331 650 2450 897 
Q 2541 1088 2541 1459 
L 2541 1666 
z
" transform="scale(0.015625)"/>
       <path id="ArialMT-6e" d="M 422 0 
L 422 3319 
L 928 3319 
L 928 2847 
Q 1294 3394 1984 3394 
Q 2284 3394 2536 3286 
Q 2788 3178 2913 3003 
Q 3038 2828 3088 2588 
Q 3119 2431 3119 2041 
L 3119 0 
L 2556 0 
L 2556 2019 
Q 2556 2363 2490 2533 
Q 2425 2703 2258 2804 
Q 2091 2906 1866 2906 
Q 1506 2906 1245 2678 
Q 984 2450 984 1813 
L 984 0 
L 422 0 
z
" transform="scale(0.015625)"/>
       <path id="ArialMT-74" d="M 1650 503 
L 1731 6 
Q 1494 -44 1306 -44 
Q 1000 -44 831 53 
Q 663 150 594 308 
Q 525 466 525 972 
L 525 2881 
L 113 2881 
L 113 3319 
L 525 3319 
L 525 4141 
L 1084 4478 
L 1084 3319 
L 1650 3319 
L 1650 2881 
L 1084 2881 
L 1084 941 
Q 1084 700 1114 631 
Q 1144 563 1211 522 
Q 1278 481 1403 481 
Q 1497 481 1650 503 
z
" transform="scale(0.015625)"/>
       <path id="ArialMT-6d" d="M 422 0 
L 422 3319 
L 925 3319 
L 925 2853 
Q 1081 3097 1340 3245 
Q 1600 3394 1931 3394 
Q 2300 3394 2536 3241 
Q 2772 3088 2869 2813 
Q 3263 3394 3894 3394 
Q 4388 3394 4653 3120 
Q 4919 2847 4919 2278 
L 4919 0 
L 4359 0 
L 4359 2091 
Q 4359 2428 4304 2576 
Q 4250 2725 4106 2815 
Q 3963 2906 3769 2906 
Q 3419 2906 3187 2673 
Q 2956 2441 2956 1928 
L 2956 0 
L 2394 0 
L 2394 2156 
Q 2394 2531 2256 2718 
Q 2119 2906 1806 2906 
Q 1569 2906 1367 2781 
Q 1166 2656 1075 2415 
Q 984 2175 984 1722 
L 984 0 
L 422 0 
z
" transform="scale(0.015625)"/>
       <path id="ArialMT-20" transform="scale(0.015625)"/>
       <path id="ArialMT-42" d="M 469 0 
L 469 4581 
L 2188 4581 
Q 2713 4581 3030 4442 
Q 3347 4303 3526 4014 
Q 3706 3725 3706 3409 
Q 3706 3116 3547 2856 
Q 3388 2597 3066 2438 
Q 3481 2316 3704 2022 
Q 3928 1728 3928 1328 
Q 3928 1006 3792 729 
Q 3656 453 3456 303 
Q 3256 153 2954 76 
Q 2653 0 2216 0 
L 469 0 
z
M 1075 2656 
L 2066 2656 
Q 2469 2656 2644 2709 
Q 2875 2778 2992 2937 
Q 3109 3097 3109 3338 
Q 3109 3566 3000 3739 
Q 2891 3913 2687 3977 
Q 2484 4041 1991 4041 
L 1075 4041 
L 1075 2656 
z
M 1075 541 
L 2216 541 
Q 2509 541 2628 563 
Q 2838 600 2978 687 
Q 3119 775 3209 942 
Q 3300 1109 3300 1328 
Q 3300 1584 3169 1773 
Q 3038 1963 2805 2039 
Q 2572 2116 2134 2116 
L 1075 2116 
L 1075 541 
z
" transform="scale(0.015625)"/>
       <path id="ArialMT-6f" d="M 213 1659 
Q 213 2581 725 3025 
Q 1153 3394 1769 3394 
Q 2453 3394 2887 2945 
Q 3322 2497 3322 1706 
Q 3322 1066 3130 698 
Q 2938 331 2570 128 
Q 2203 -75 1769 -75 
Q 1072 -75 642 372 
Q 213 819 213 1659 
z
M 791 1659 
Q 791 1022 1069 705 
Q 1347 388 1769 388 
Q 2188 388 2466 706 
Q 2744 1025 2744 1678 
Q 2744 2294 2464 2611 
Q 2184 2928 1769 2928 
Q 1347 2928 1069 2612 
Q 791 2297 791 1659 
z
" transform="scale(0.015625)"/>
       <path id="ArialMT-6c" d="M 409 0 
L 409 4581 
L 972 4581 
L 972 0 
L 409 0 
z
" transform="scale(0.015625)"/>
       <path id="ArialMT-65" d="M 2694 1069 
L 3275 997 
Q 3138 488 2766 206 
Q 2394 -75 1816 -75 
Q 1088 -75 661 373 
Q 234 822 234 1631 
Q 234 2469 665 2931 
Q 1097 3394 1784 3394 
Q 2450 3394 2872 2941 
Q 3294 2488 3294 1666 
Q 3294 1616 3291 1516 
L 816 1516 
Q 847 969 1125 678 
Q 1403 388 1819 388 
Q 2128 388 2347 550 
Q 2566 713 2694 1069 
z
M 847 1978 
L 2700 1978 
Q 2663 2397 2488 2606 
Q 2219 2931 1791 2931 
Q 1403 2931 1139 2672 
Q 875 2413 847 1978 
z
" transform="scale(0.015625)"/>
       <path id="ArialMT-63" d="M 2588 1216 
L 3141 1144 
Q 3050 572 2676 248 
Q 2303 -75 1759 -75 
Q 1078 -75 664 370 
Q 250 816 250 1647 
Q 250 2184 428 2587 
Q 606 2991 970 3192 
Q 1334 3394 1763 3394 
Q 2303 3394 2647 3120 
Q 2991 2847 3088 2344 
L 2541 2259 
Q 2463 2594 2264 2762 
Q 2066 2931 1784 2931 
Q 1359 2931 1093 2626 
Q 828 2322 828 1663 
Q 828 994 1084 691 
Q 1341 388 1753 388 
Q 2084 388 2306 591 
Q 2528 794 2588 1216 
z
" transform="scale(0.015625)"/>
       <path id="ArialMT-6b" d="M 425 0 
L 425 4581 
L 988 4581 
L 988 1969 
L 2319 3319 
L 3047 3319 
L 1778 2088 
L 3175 0 
L 2481 0 
L 1384 1697 
L 988 1316 
L 988 0 
L 425 0 
z
" transform="scale(0.015625)"/>
       <path id="ArialMT-73" d="M 197 991 
L 753 1078 
Q 800 744 1014 566 
Q 1228 388 1613 388 
Q 2000 388 2187 545 
Q 2375 703 2375 916 
Q 2375 1106 2209 1216 
Q 2094 1291 1634 1406 
Q 1016 1563 777 1677 
Q 538 1791 414 1992 
Q 291 2194 291 2438 
Q 291 2659 392 2848 
Q 494 3038 669 3163 
Q 800 3259 1026 3326 
Q 1253 3394 1513 3394 
Q 1903 3394 2198 3281 
Q 2494 3169 2634 2976 
Q 2775 2784 2828 2463 
L 2278 2388 
Q 2241 2644 2061 2787 
Q 1881 2931 1553 2931 
Q 1166 2931 1000 2803 
Q 834 2675 834 2503 
Q 834 2394 903 2306 
Q 972 2216 1119 2156 
Q 1203 2125 1616 2013 
Q 2213 1853 2448 1751 
Q 2684 1650 2818 1456 
Q 2953 1263 2953 975 
Q 2953 694 2789 445 
Q 2625 197 2315 61 
Q 2006 -75 1616 -75 
Q 969 -75 630 194 
Q 291 463 197 991 
z
" transform="scale(0.015625)"/>
      </defs>
      <use xlink:href="#ArialMT-51"/>
      <use xlink:href="#ArialMT-75" x="77.783203"/>
      <use xlink:href="#ArialMT-61" x="133.398438"/>
      <use xlink:href="#ArialMT-6e" x="189.013672"/>
      <use xlink:href="#ArialMT-74" x="244.628906"/>
      <use xlink:href="#ArialMT-75" x="272.412109"/>
      <use xlink:href="#ArialMT-6d" x="328.027344"/>
      <use xlink:href="#ArialMT-20" x="411.328125"/>
      <use xlink:href="#ArialMT-42" x="439.111328"/>
      <use xlink:href="#ArialMT-6f" x="505.810547"/>
      <use xlink:href="#ArialMT-74" x="561.425781"/>
      <use xlink:href="#ArialMT-74" x="589.208984"/>
      <use xlink:href="#ArialMT-6c" x="616.992188"/>
      <use xlink:href="#ArialMT-65" x="639.208984"/>
      <use xlink:href="#ArialMT-6e" x="694.824219"/>
      <use xlink:href="#ArialMT-65" x="750.439453"/>
      <use xlink:href="#ArialMT-63" x="806.054688"/>
      <use xlink:href="#ArialMT-6b" x="856.054688"/>
      <use xlink:href="#ArialMT-73" x="906.054688"/>
     </g>
    </g>
    <g id="patch_17">
     <path d="M 79.769764 212.433529 
L 91.769764 212.433529 
L 91.769764 208.233529 
L 79.769764 208.233529 
z
" style="fill: #2ca02c; opacity: 0.3"/>
    </g>
    <g id="text_12">
     <!-- ML Solutions -->
     <g transform="translate(96.569764 212.433529) scale(0.06 -0.06)">
      <defs>
       <path id="ArialMT-4d" d="M 475 0 
L 475 4581 
L 1388 4581 
L 2472 1338 
Q 2622 884 2691 659 
Q 2769 909 2934 1394 
L 4031 4581 
L 4847 4581 
L 4847 0 
L 4263 0 
L 4263 3834 
L 2931 0 
L 2384 0 
L 1059 3900 
L 1059 0 
L 475 0 
z
" transform="scale(0.015625)"/>
       <path id="ArialMT-4c" d="M 469 0 
L 469 4581 
L 1075 4581 
L 1075 541 
L 3331 541 
L 3331 0 
L 469 0 
z
" transform="scale(0.015625)"/>
       <path id="ArialMT-53" d="M 288 1472 
L 859 1522 
Q 900 1178 1048 958 
Q 1197 738 1509 602 
Q 1822 466 2213 466 
Q 2559 466 2825 569 
Q 3091 672 3220 851 
Q 3350 1031 3350 1244 
Q 3350 1459 3225 1620 
Q 3100 1781 2813 1891 
Q 2628 1963 1997 2114 
Q 1366 2266 1113 2400 
Q 784 2572 623 2826 
Q 463 3081 463 3397 
Q 463 3744 659 4045 
Q 856 4347 1234 4503 
Q 1613 4659 2075 4659 
Q 2584 4659 2973 4495 
Q 3363 4331 3572 4012 
Q 3781 3694 3797 3291 
L 3216 3247 
Q 3169 3681 2898 3903 
Q 2628 4125 2100 4125 
Q 1550 4125 1298 3923 
Q 1047 3722 1047 3438 
Q 1047 3191 1225 3031 
Q 1400 2872 2139 2705 
Q 2878 2538 3153 2413 
Q 3553 2228 3743 1945 
Q 3934 1663 3934 1294 
Q 3934 928 3725 604 
Q 3516 281 3123 101 
Q 2731 -78 2241 -78 
Q 1619 -78 1198 103 
Q 778 284 539 648 
Q 300 1013 288 1472 
z
" transform="scale(0.015625)"/>
       <path id="ArialMT-69" d="M 425 3934 
L 425 4581 
L 988 4581 
L 988 3934 
L 425 3934 
z
M 425 0 
L 425 3319 
L 988 3319 
L 988 0 
L 425 0 
z
" transform="scale(0.015625)"/>
      </defs>
      <use xlink:href="#ArialMT-4d"/>
      <use xlink:href="#ArialMT-4c" x="83.300781"/>
      <use xlink:href="#ArialMT-20" x="135.166016"/>
      <use xlink:href="#ArialMT-53" x="162.949219"/>
      <use xlink:href="#ArialMT-6f" x="229.648438"/>
      <use xlink:href="#ArialMT-6c" x="285.263672"/>
      <use xlink:href="#ArialMT-75" x="307.480469"/>
      <use xlink:href="#ArialMT-74" x="363.095703"/>
      <use xlink:href="#ArialMT-69" x="390.878906"/>
      <use xlink:href="#ArialMT-6f" x="413.095703"/>
      <use xlink:href="#ArialMT-6e" x="468.710938"/>
      <use xlink:href="#ArialMT-73" x="524.326172"/>
     </g>
    </g>
    <g id="patch_18">
     <path d="M 79.769764 220.920716 
L 91.769764 220.920716 
L 91.769764 216.720716 
L 79.769764 216.720716 
z
" style="fill: #1f77b4; opacity: 0.3"/>
    </g>
    <g id="text_13">
     <!-- Integrated Result -->
     <g transform="translate(96.569764 220.920716) scale(0.06 -0.06)">
      <defs>
       <path id="ArialMT-49" d="M 597 0 
L 597 4581 
L 1203 4581 
L 1203 0 
L 597 0 
z
" transform="scale(0.015625)"/>
       <path id="ArialMT-67" d="M 319 -275 
L 866 -356 
Q 900 -609 1056 -725 
Q 1266 -881 1628 -881 
Q 2019 -881 2231 -725 
Q 2444 -569 2519 -288 
Q 2563 -116 2559 434 
Q 2191 0 1641 0 
Q 956 0 581 494 
Q 206 988 206 1678 
Q 206 2153 378 2554 
Q 550 2956 876 3175 
Q 1203 3394 1644 3394 
Q 2231 3394 2613 2919 
L 2613 3319 
L 3131 3319 
L 3131 450 
Q 3131 -325 2973 -648 
Q 2816 -972 2473 -1159 
Q 2131 -1347 1631 -1347 
Q 1038 -1347 672 -1080 
Q 306 -813 319 -275 
z
M 784 1719 
Q 784 1066 1043 766 
Q 1303 466 1694 466 
Q 2081 466 2343 764 
Q 2606 1063 2606 1700 
Q 2606 2309 2336 2618 
Q 2066 2928 1684 2928 
Q 1309 2928 1046 2623 
Q 784 2319 784 1719 
z
" transform="scale(0.015625)"/>
       <path id="ArialMT-72" d="M 416 0 
L 416 3319 
L 922 3319 
L 922 2816 
Q 1116 3169 1280 3281 
Q 1444 3394 1641 3394 
Q 1925 3394 2219 3213 
L 2025 2691 
Q 1819 2813 1613 2813 
Q 1428 2813 1281 2702 
Q 1134 2591 1072 2394 
Q 978 2094 978 1738 
L 978 0 
L 416 0 
z
" transform="scale(0.015625)"/>
       <path id="ArialMT-64" d="M 2575 0 
L 2575 419 
Q 2259 -75 1647 -75 
Q 1250 -75 917 144 
Q 584 363 401 755 
Q 219 1147 219 1656 
Q 219 2153 384 2558 
Q 550 2963 881 3178 
Q 1213 3394 1622 3394 
Q 1922 3394 2156 3267 
Q 2391 3141 2538 2938 
L 2538 4581 
L 3097 4581 
L 3097 0 
L 2575 0 
z
M 797 1656 
Q 797 1019 1065 703 
Q 1334 388 1700 388 
Q 2069 388 2326 689 
Q 2584 991 2584 1609 
Q 2584 2291 2321 2609 
Q 2059 2928 1675 2928 
Q 1300 2928 1048 2622 
Q 797 2316 797 1656 
z
" transform="scale(0.015625)"/>
       <path id="ArialMT-52" d="M 503 0 
L 503 4581 
L 2534 4581 
Q 3147 4581 3465 4457 
Q 3784 4334 3975 4021 
Q 4166 3709 4166 3331 
Q 4166 2844 3850 2509 
Q 3534 2175 2875 2084 
Q 3116 1969 3241 1856 
Q 3506 1613 3744 1247 
L 4541 0 
L 3778 0 
L 3172 953 
Q 2906 1366 2734 1584 
Q 2563 1803 2427 1890 
Q 2291 1978 2150 2013 
Q 2047 2034 1813 2034 
L 1109 2034 
L 1109 0 
L 503 0 
z
M 1109 2559 
L 2413 2559 
Q 2828 2559 3062 2645 
Q 3297 2731 3419 2920 
Q 3541 3109 3541 3331 
Q 3541 3656 3305 3865 
Q 3069 4075 2559 4075 
L 1109 4075 
L 1109 2559 
z
" transform="scale(0.015625)"/>
      </defs>
      <use xlink:href="#ArialMT-49"/>
      <use xlink:href="#ArialMT-6e" x="27.783203"/>
      <use xlink:href="#ArialMT-74" x="83.398438"/>
      <use xlink:href="#ArialMT-65" x="111.181641"/>
      <use xlink:href="#ArialMT-67" x="166.796875"/>
      <use xlink:href="#ArialMT-72" x="222.412109"/>
      <use xlink:href="#ArialMT-61" x="255.712891"/>
      <use xlink:href="#ArialMT-74" x="311.328125"/>
      <use xlink:href="#ArialMT-65" x="339.111328"/>
      <use xlink:href="#ArialMT-64" x="394.726562"/>
      <use xlink:href="#ArialMT-20" x="450.341797"/>
      <use xlink:href="#ArialMT-52" x="478.125"/>
      <use xlink:href="#ArialMT-65" x="550.341797"/>
      <use xlink:href="#ArialMT-73" x="605.957031"/>
      <use xlink:href="#ArialMT-75" x="655.957031"/>
      <use xlink:href="#ArialMT-6c" x="711.572266"/>
      <use xlink:href="#ArialMT-74" x="733.789062"/>
     </g>
    </g>
   </g>
  </g>
 </g>
 <defs>
  <clipPath id="p60cf4d97b0">
   <rect x="3.6" y="3.6" width="226.499528" height="224.296063"/>
  </clipPath>
 </defs>
</svg>
